<?xml version="1.0" encoding="utf-8"?>
<COLLADA xmlns="http://www.collada.org/2005/11/COLLADASchema" version="1.4.1" xmlns:xsi="http://www.w3.org/2001/XMLSchema-instance">
  <asset>
    <contributor>
      <author>Blender User</author>
      <authoring_tool>Blender 4.5.3 LTS commit date:2025-09-08, commit time:12:46, hash:67807e1800cc</authoring_tool>
    </contributor>
    <created>2025-09-30T02:10:25</created>
    <modified>2025-09-30T02:10:25</modified>
    <unit name="meter" meter="1"/>
    <up_axis>Z_UP</up_axis>
  </asset>
  <library_effects>
    <effect id="ID11-effect">
      <profile_COMMON>
        <technique sid="common">
          <lambert>
            <emission>
              <color sid="emission">0 0 0 1</color>
            </emission>
            <diffuse>
              <color sid="diffuse">1 1 1 1</color>
            </diffuse>
            <index_of_refraction>
              <float sid="ior">1.5</float>
            </index_of_refraction>
          </lambert>
        </technique>
      </profile_COMMON>
    </effect>
    <effect id="ID10-effect">
      <profile_COMMON>
        <technique sid="common">
          <lambert>
            <emission>
              <color sid="emission">0 0 0 1</color>
            </emission>
            <diffuse>
              <color sid="diffuse">0 0.231373 1 1</color>
            </diffuse>
            <index_of_refraction>
              <float sid="ior">1.5</float>
            </index_of_refraction>
          </lambert>
        </technique>
      </profile_COMMON>
    </effect>
  </library_effects>
  <library_images/>
  <library_materials>
    <material id="ID11-material" name="ID11">
      <instance_effect url="#ID11-effect"/>
    </material>
    <material id="ID10-material" name="ID10">
      <instance_effect url="#ID10-effect"/>
    </material>
  </library_materials>
  <library_geometries>
    <geometry id="ID20-mesh" name="ID20">
      <mesh>
        <source id="ID20-mesh-positions">
          <float_array id="ID20-mesh-positions-array" count="210">0.146969 0.508 0 0.201259 0 0 0.1962299 0 0 0.141941 0.508 0 0.141679 0.5086 0.007484734 0.19489 0 0.0228942 0.140916 0.510378 0.01475948 0.1962299 0 0 0.141941 0.508 0 0.190888 0 0.04547566 0.139715 0.513268 0.02162075 0.136415 0.521955 0.03342157 0.138176 0.517164 0.02788215 0.132721 0.533768 0.04193109 0.134554 0.527528 0.03813534 0.131039 0.540556 0.04472565 0.184279 0 0.06743609 0.129625 0.547757 0.04643857 0.128576 0.555198 0.04699957 0.141484 0.522269 0.03372895 0.134554 0.527528 0.03813534 0.1396459 0.527959 0.03844088 0.133819 0.556102 0.04698705 0.134823 0.548567 0.04655677 0.128576 0.555198 0.04699957 0.1432279 0.517374 0.02816569 0.138176 0.517164 0.02788215 0.136415 0.521955 0.03342157 0.1459169 0.510515 0.01491737 0.140916 0.510378 0.01475948 0.139715 0.513268 0.02162075 0.1447539 0.513392 0.02185916 0.1466889 0.508662 0.007580399 0.141679 0.5086 0.007484734 0.146969 0.508 0 0.141941 0.508 0 0.132721 0.533768 0.04193109 0.1378419 0.534329 0.04220837 0.131039 0.540556 0.04472565 0.129625 0.547757 0.04643857 0.136194 0.541252 0.04494267 0.198327 0 0.03422695 0.1447539 0.513392 0.02185916 0.1432279 0.517374 0.02816569 0.189617 0 0.0674569 0.194694 0 0.05096656 0.1378419 0.534329 0.04220837 0.146969 0.508 0 0.1466889 0.508662 0.007580399 0.201259 0 0 0.200515 0 0.01723819 0.1459169 0.510515 0.01491737 0.141484 0.522269 0.03372895 0.1396459 0.527959 0.03844088 0.136194 0.541252 0.04494267 0.133819 0.556102 0.04698705 0.134823 0.548567 0.04655677 0.190888 0 0.04547566 0.189617 0 0.0674569 0.184279 0 0.06743609 0.1962299 0 0 0.200515 0 0.01723819 0.19489 0 0.0228942 0.198327 0 0.03422695 0.201259 0 0 0.194694 0 0.05096656 0.133819 0.556102 0.04698705 0.128576 0.555198 0.04699957 0.184279 0 0.06743609 0.189617 0 0.0674569</float_array>
          <technique_common>
            <accessor source="#ID20-mesh-positions-array" count="70" stride="3">
              <param name="X" type="float"/>
              <param name="Y" type="float"/>
              <param name="Z" type="float"/>
            </accessor>
          </technique_common>
        </source>
        <source id="ID20-mesh-normals">
          <float_array id="ID20-mesh-normals-array" count="192">0 0 -1 0 0 -1 -0.9929489 -0.1062603 -0.05254906 -0.9875907 -0.1058353 -0.1160324 -0.9889287 -0.1062636 -0.1035769 -0.9943377 -0.1062667 -3.58616e-5 -0.994338 -0.1062636 -1.06748e-5 -0.9673131 -0.1058595 -0.2304328 -0.9826428 -0.1062641 -0.1520568 -0.965774 -0.106264 -0.236619 -0.9746906 -0.1062638 -0.1966885 -0.9481378 -0.1062633 -0.2995712 -0.9566556 -0.1062639 -0.2711421 -0.9410256 -0.1062638 -0.321215 -0.9337902 -0.1062661 -0.3416776 -0.9360724 -0.1062638 -0.3353752 -0.9338899 -0.1062637 -0.3414056 -1.15094e-5 0.6963061 -0.7177451 -1.55039e-6 0.5845079 -0.8113881 -1.20321e-5 0.5752196 -0.8179992 -7.21985e-6 -0.02341461 -0.9997259 8.33068e-7 0.136789 -0.9906003 -2.129e-6 -0.0042001 -0.9999912 0 0.8004469 -0.5994038 3.61961e-5 0.8050131 -0.5932571 1.22322e-4 0.7031128 -0.7110784 -2.9753e-5 0.9480991 -0.317975 1.61119e-7 0.9494128 -0.3140308 6.1919e-6 0.88792 -0.459998 -1.96747e-5 0.8852093 -0.4651933 -2.13757e-5 0.9868756 -0.1614828 9.51719e-6 0.9872393 -0.1592447 -5.77746e-6 1 -2.9631e-5 9.62056e-7 1 -2.38011e-5 -3.89677e-6 0.451745 -0.8921472 -2.52645e-6 0.4396788 -0.8981551 5.28782e-6 0.3072994 -0.9516129 1.20071e-6 0.1541033 -0.9880548 -6.96839e-6 0.2923966 -0.9562972 0.9798737 0.1060661 0.1691081 0.9831879 0.1062641 0.1484916 0.9756483 0.1062638 0.1918812 0.9368309 0.1062654 0.3332501 0.9619125 0.1060342 0.2519545 0.9507632 0.1062636 0.2911313 0.994338 0.1062636 2.14857e-5 0.9930123 0.1062638 0.05132859 0.9943379 0.1062641 2.82973e-5 0.9907181 0.1060529 0.08503341 0.9891772 0.1062635 0.1011757 0.9672277 0.1062644 0.2306047 0.9586818 0.1062638 0.263889 0.9442467 0.1062636 0.3116191 0.9381489 0.1062643 0.3295218 0.9398834 0.1062641 0.3245415 0 -1 0 0 -1 0 0 -1 0 0 -1 0 0 -1 0 0 -1 0 0 -1 0 -0.003892183 0.036394 0.99933 -0.003895223 0.03639382 0.9993299</float_array>
          <technique_common>
            <accessor source="#ID20-mesh-normals-array" count="64" stride="3">
              <param name="X" type="float"/>
              <param name="Y" type="float"/>
              <param name="Z" type="float"/>
            </accessor>
          </technique_common>
        </source>
        <vertices id="ID20-mesh-vertices">
          <input semantic="POSITION" source="#ID20-mesh-positions"/>
        </vertices>
        <triangles material="ID11-material" count="58">
          <input semantic="VERTEX" source="#ID20-mesh-vertices" offset="0"/>
          <input semantic="NORMAL" source="#ID20-mesh-normals" offset="1"/>
          <p>0 0 1 0 2 0 0 1 2 1 3 1 4 2 5 3 6 4 7 5 4 2 8 6 4 2 7 5 5 3 5 3 9 7 10 8 10 8 6 4 5 3 9 7 11 9 12 10 10 8 9 7 12 10 9 7 13 11 14 12 11 9 9 7 14 12 15 13 13 11 16 14 9 7 16 14 13 11 16 14 17 15 15 13 16 14 18 16 17 15 19 17 20 18 21 19 22 20 23 21 24 22 25 23 26 24 27 25 27 25 19 17 25 23 28 26 29 27 30 28 26 24 31 29 30 28 28 26 30 28 31 29 29 27 32 30 33 31 32 30 29 27 28 26 33 31 32 30 34 32 33 31 34 32 35 33 25 23 31 29 26 24 20 18 36 34 21 19 20 18 19 17 27 25 37 35 36 34 38 36 36 34 37 35 21 19 38 36 39 37 40 38 40 38 37 35 38 36 24 22 23 21 39 37 40 38 39 37 23 21 41 39 42 40 43 41 44 42 45 43 46 44 47 45 48 46 49 47 49 47 48 46 50 48 48 46 51 49 50 48 41 39 50 48 42 40 51 49 42 40 50 48 43 41 52 50 41 39 53 51 45 43 52 50 41 39 52 50 45 43 44 42 46 44 54 52 45 43 53 51 46 44 55 53 44 42 56 54 44 42 54 52 56 54 57 55 58 55 59 55 60 56 61 56 62 56 62 57 61 57 63 57 60 58 64 58 61 58 63 59 65 59 62 59 58 60 57 60 65 60 65 61 57 61 62 61 66 62 67 62 68 62 68 63 69 63 66 63</p>
        </triangles>
      </mesh>
    </geometry>
    <geometry id="ID13-mesh" name="ID13">
      <mesh>
        <source id="ID13-mesh-positions">
          <float_array id="ID13-mesh-positions-array" count="216">-0.146969 0.508 0 -0.141941 0.508 0 -0.1962299 0 0 -0.201259 0 0 -0.141714 0.521587 0.03305268 -0.13826 0.516947 0.0275858 -0.1433939 0.516919 0.02754729 -0.129773 0.546898 0.04629635 -0.131199 0.53985 0.04449039 -0.1351169 0.5468 0.04627907 -0.141941 0.508 0 -0.1467199 0.508586 0.007397353 -0.1416839 0.508588 0.007409274 -0.140938 0.510326 0.01460164 -0.145996 0.510317 0.01457506 -0.144858 0.513126 0.02134335 -0.146969 0.508 0 -0.139765 0.513144 0.02137929 -0.13653 0.521628 0.03309577 -0.139931 0.52702 0.03776347 -0.138161 0.533113 0.04159229 -0.134697 0.527078 0.03780686 -0.13652 0.53975 0.04445707 -0.132879 0.533192 0.04163378 -0.190137 0 0.06597876 -0.13652 0.53975 0.04445707 -0.138161 0.533113 0.04159229 -0.139931 0.52702 0.03776347 -0.194128 0 0.05308097 -0.1351169 0.5468 0.04627907 -0.144858 0.513126 0.02134335 -0.197236 0 0.04003405 -0.1433939 0.516919 0.02754729 -0.141714 0.521587 0.03305268 -0.1467199 0.508586 0.007397353 -0.200802 0 0.01349365 -0.145996 0.510317 0.01457506 -0.199461 0 0.02683836 -0.146969 0.508 0 -0.201259 0 0 -0.1888999 0 0.05311417 -0.192095 0 0.04007148 -0.13653 0.521628 0.03309577 -0.139765 0.513144 0.02137929 -0.13826 0.516947 0.0275858 -0.140938 0.510326 0.01460164 -0.1943809 0 0.02687156 -0.19576 0 0.01351439 -0.1416839 0.508588 0.007409274 -0.1962299 0 0 -0.141941 0.508 0 -0.134697 0.527078 0.03780686 -0.132879 0.533192 0.04163378 -0.184798 0 0.06599956 -0.131199 0.53985 0.04449039 -0.129773 0.546898 0.04629635 -0.194128 0 0.05308097 -0.197236 0 0.04003405 -0.192095 0 0.04007148 -0.199461 0 0.02683836 -0.200802 0 0.01349365 -0.19576 0 0.01351439 -0.201259 0 0 -0.1962299 0 0 -0.1943809 0 0.02687156 -0.1888999 0 0.05311417 -0.184798 0 0.06599956 -0.190137 0 0.06597876 -0.1351169 0.5468 0.04627907 -0.184798 0 0.06599956 -0.129773 0.546898 0.04629635 -0.190137 0 0.06597876</float_array>
          <technique_common>
            <accessor source="#ID13-mesh-positions-array" count="72" stride="3">
              <param name="X" type="float"/>
              <param name="Y" type="float"/>
              <param name="Z" type="float"/>
            </accessor>
          </technique_common>
        </source>
        <source id="ID13-mesh-normals">
          <float_array id="ID13-mesh-normals-array" count="198">0 0 -1 0 0 -1 -1.79512e-7 0.7109493 -0.7032433 -1.42725e-7 0.8096235 -0.5869497 0 0.8102329 -0.5861081 -3.43658e-6 0.1724144 -0.9850245 -5.4983e-7 0.3223278 -0.9466282 2.75415e-6 0.1744858 -0.9846598 0 1 -7.66665e-6 0 0.987541 -0.1573627 4.6863e-7 0.9874975 -0.157635 2.83384e-7 0.9505158 -0.3106766 -4.46918e-7 0.9507033 -0.3101024 -8.17119e-7 0.8909402 -0.4541208 -4.55813e-6 1 -8.99925e-6 0 0.8905468 -0.4548918 8.57748e-7 0.7100426 -0.7041587 2.75671e-7 0.5953395 -0.8034744 0 0.465694 -0.8849459 0 0.5940729 -0.8044114 2.12109e-7 0.3244943 -0.9458878 1.19908e-6 0.4640141 -0.8858278 -0.9393876 0.1062634 0.3259739 -0.9454696 0.1062638 0.3078888 -0.9521201 0.1062636 0.2866625 -0.9599909 0.1062644 0.2590857 -0.9591273 0.106113 0.2623261 -0.9406933 0.1062643 0.3221862 -0.9837175 0.1062636 0.1449412 -0.974445 0.1061393 0.1979685 -0.9764828 0.1062643 0.1875883 -0.9683464 0.1062643 0.2258609 -0.9930737 0.1062654 0.05012506 -0.9921228 0.1061213 0.06656432 -0.9894236 0.1062629 0.09873861 -0.9854882 0.1061365 0.1324695 -0.9943379 0.106265 2.49092e-5 -0.9943382 0.1062622 2.61567e-5 0.9572029 -0.1061066 -0.2692656 0.9733606 -0.1061332 -0.2032361 0.9663413 -0.1062644 -0.2342913 0.9828987 -0.1062639 -0.1503938 0.9751169 -0.1062644 -0.1945635 0.9890438 -0.106264 -0.1024711 0.9850085 -0.10613 -0.1359956 0.9920005 -0.106119 -0.0683645 0.9929808 -0.1062641 -0.051934 0.9943382 -0.1062617 -2.26051e-5 0.9943381 -0.1062631 -2.0394e-5 0.9573461 -0.1062641 -0.2686938 0.9488567 -0.1062636 -0.2972866 0.9364437 -0.1059843 -0.3344259 0.9416756 -0.1062639 -0.3193041 0.9365305 -0.1062641 -0.3340938 0 -1 0 0 -1 0 0 -1 0 0 -1 0 0 -1 0 0 -1 0 0 -1 0 0 -1 0 0 -1 0 0 -1 0 -0.003902435 0.03639578 0.9993299 -0.003893196 0.03639471 0.9993299</float_array>
          <technique_common>
            <accessor source="#ID13-mesh-normals-array" count="66" stride="3">
              <param name="X" type="float"/>
              <param name="Y" type="float"/>
              <param name="Z" type="float"/>
            </accessor>
          </technique_common>
        </source>
        <vertices id="ID13-mesh-vertices">
          <input semantic="POSITION" source="#ID13-mesh-positions"/>
        </vertices>
        <triangles material="ID11-material" count="60">
          <input semantic="VERTEX" source="#ID13-mesh-vertices" offset="0"/>
          <input semantic="NORMAL" source="#ID13-mesh-normals" offset="1"/>
          <p>0 0 1 0 2 0 0 1 2 1 3 1 4 2 5 3 6 4 7 5 8 6 9 7 10 8 11 9 12 10 13 11 14 12 15 13 11 9 14 12 12 10 11 9 10 8 16 14 17 15 13 11 15 13 14 12 13 11 12 10 6 4 5 3 17 15 18 16 4 2 19 17 19 17 20 18 21 19 19 17 21 19 18 16 17 15 15 13 6 4 18 16 5 3 4 2 20 18 22 20 23 21 23 21 21 19 20 18 9 7 8 6 22 20 23 21 22 20 8 6 24 22 25 23 26 24 27 25 28 26 26 24 24 22 29 27 25 23 30 28 31 29 32 30 31 29 28 26 33 31 34 32 35 33 36 34 37 35 30 28 36 34 34 32 38 36 39 37 39 37 35 33 34 32 31 29 30 28 37 35 35 33 37 35 36 34 28 26 27 25 33 31 32 30 31 29 33 31 26 24 28 26 24 22 40 38 41 39 42 40 41 39 43 41 44 42 42 40 41 39 44 42 45 43 43 41 46 44 41 39 46 44 43 41 45 43 47 45 48 46 47 45 45 43 46 44 48 46 47 45 49 47 48 46 49 47 50 48 51 49 40 38 42 40 40 38 52 50 53 51 52 50 40 38 51 49 53 51 52 50 54 52 54 52 55 53 53 51 56 54 57 54 58 54 59 55 60 55 61 55 60 56 62 56 63 56 58 57 57 57 64 57 63 58 61 58 60 58 59 59 64 59 57 59 61 60 64 60 59 60 58 61 65 61 56 61 66 62 67 62 65 62 56 63 65 63 67 63 68 64 69 64 70 64 68 65 71 65 69 65</p>
        </triangles>
      </mesh>
    </geometry>
    <geometry id="ID4-mesh" name="ID4">
      <mesh>
        <source id="ID4-mesh-positions">
          <float_array id="ID4-mesh-positions-array" count="1530">-0.04438626 0.615 0.007406711 -0.04499995 0.62 0 -0.04499995 0.615 0 -0.03551125 0.615 0.02763956 -0.03957629 0.62 0.02141755 -0.03957629 0.615 0.02141755 -0.04256176 0.615 0.01461148 -0.04256176 0.62 0.01461148 -0.04438626 0.62 0.007406711 -0.02461266 0.62 0.03767246 -0.02461266 0.615 0.03767246 -0.0180763 0.615 0.04120975 -0.03551125 0.62 0.02763956 -0.0304777 0.615 0.03310757 -0.0304777 0.62 0.03310757 -0.003716051 0.615 0.04484629 0.003716051 0.615 0.04484629 -0.003716051 0.62 0.04484629 -0.01104676 0.615 0.04362297 -0.01104676 0.62 0.04362297 -0.0180763 0.62 0.04120975 0.02461266 0.615 0.03767246 0.0180763 0.62 0.04120975 0.0180763 0.615 0.04120975 0.01104676 0.62 0.04362297 0.003716051 0.62 0.04484629 0.01104676 0.615 0.04362297 0.03551125 0.62 0.02763956 0.0304777 0.62 0.03310757 0.03551125 0.615 0.02763956 0.02461266 0.62 0.03767246 0.0304777 0.615 0.03310757 0.03957629 0.615 0.02141755 0.03957629 0.62 0.02141755 0.04256176 0.615 0.01461148 0.04256176 0.62 0.01461148 0.04438626 0.62 0.007406711 0.04438626 0.615 0.007406711 0.04499995 0.615 0 0.04499995 0.62 0 -0.01104676 0.62 0.04362297 -0.120043 0.62 0.0617612 -0.125349 0.62 0.05012369 0.13257 0.62 0.02549368 0.04256176 0.62 0.01461148 0.134388 0.62 0.01283335 0.03957629 0.62 0.02141755 0.04438626 0.62 0.007406711 0.135 0.62 0 0.03551125 0.62 0.02763956 0.04499995 0.62 0 -0.003716051 0.62 0.04484629 0.003716051 0.62 0.04484629 0.113629 0.62 0.0728935 0.0304777 0.62 0.03310757 0.1295469 0.62 0.03798085 0.02461266 0.62 0.03767246 0.125364 0.62 0.05008298 0.0180763 0.62 0.04120975 0.01104676 0.62 0.04362297 0.120043 0.62 0.0617612 -0.02461266 0.62 0.03767246 -0.0180763 0.62 0.04120975 -0.132561 0.62 0.02553606 -0.03551125 0.62 0.02763956 -0.1295469 0.62 0.03798085 -0.0304777 0.62 0.03310757 -0.04256176 0.62 0.01461148 -0.03957629 0.62 0.02141755 -0.134388 0.62 0.01283335 -0.04438626 0.62 0.007406711 -0.135 0.62 0 -0.04499995 0.62 0 -0.113629 0.62 0.0728935 0.133094 0.571329 0.04407215 0.1332049 0.564444 0.04604125 0.125364 0.62 0.05008298 0.133693 0.557356 0.04694086 -0.03248327 0.543884 0.139241 -0.02338856 0.541769 0.141084 -0.04047346 0 0.197143 0.133809 0.583792 0.03714877 0.13332 0.57783 0.0410825 0.1295469 0.62 0.03798085 0.183631 0 0.08235996 0.189617 0 0.0674569 0.135184 0.593578 0.026847 0.134464 0.589079 0.03236734 0.13257 0.62 0.02549368 0.120043 0.62 0.0617612 0.176535 0 0.0966472 0.13643 0.599842 0.01407825 0.135868 0.597193 0.02070605 0.134388 0.62 0.01283335 0.168326 0 0.110318 0.113629 0.62 0.0728935 0.1105 0.613198 0.07882225 0.159007 0 0.123374 0.1367959 0.601458 0.007119894 0.135 0.62 0 0.107003 0.606509 0.08465278 0.103138 0.599933 0.09038507 0.136924 0.6020001 0 0.148724 0 0.135592 0.09889358 0.593488 0.09600275 0.125365 0 0.157442 0.08371978 0.5752 0.111944 0.08919596 0.581101 0.106801 0.1374599 0 0.146999 0.09425181 0.587201 0.101484 0.06457316 0.559201 0.12589 0.09883838 0 0.175315 0.0845865 0 0.1826159 0.07141828 0.564208 0.121525 0.07779246 0.56957 0.116852 0.112443 0 0.166914 0.05459415 0 0.193708 0.03258818 0.543709 0.139394 0.04125255 0.546772 0.136723 0.06981527 0 0.18876 0.04947936 0.550404 0.133557 -0.004733562 0.538907 0.14358 0.004733562 0.53919 0.143332 0.007255136 0 0.2011269 0.01420068 0.539984 0.1426399 0.0234335 0.541694 0.1411499 0.02322298 0 0.19991 -0.05603468 0 0.1933 -0.04115295 0.546825 0.136678 -0.01420068 0.539814 0.142789 -0.02470159 0 0.1997359 -0.07119047 0 0.188242 -0.04947227 0.550367 0.13359 -0.08595246 0 0.181981 -0.05725628 0.554515 0.129975 -0.06456917 0.559166 0.125921 -0.1001099 0 0.174589 -0.07779598 0.569537 0.1168799 -0.07141429 0.564185 0.121545 -0.09425395 0.587189 0.101494 -0.126503 0 0.156526 -0.138574 0 0.1459529 -0.08371609 0.575196 0.111947 -0.113699 0 0.166065 -0.110499 0.613197 0.07882308 -0.159948 0 0.122155 -0.16912 0 0.109097 -0.1497009 0 0.13451 -0.09889966 0.593471 0.09601765 -0.125349 0.62 0.05012369 -0.184267 0 0.08092808 -0.190137 0 0.06597876 -0.113629 0.62 0.0728935 -0.1295469 0.62 0.03798085 -0.1330929 0.568871 0.04490649 -0.1340399 0.554143 0.04699218 -0.133357 0.561577 0.04653745 -0.136385 0.599637 0.01471406 -0.136784 0.601405 0.007456123 -0.134388 0.62 0.01283335 -0.135 0.62 0 -0.13578 0.596749 0.02158647 -0.132561 0.62 0.02553606 -0.134305 0.587939 0.03352648 -0.135052 0.592818 0.02790665 -0.133216 0.575817 0.04213839 -0.133655 0.582227 0.03831058 -0.136924 0.6020001 0 -0.120043 0.62 0.0617612 -0.177282 0 0.09527009 -0.107006 0.606501 0.08465999 -0.1351169 0.5468 0.04627907 -0.103144 0.59992 0.09039676 -0.08920258 0.581075 0.106823 -0.008735179 0 0.201065 0.03902828 0 0.197437 0.05726176 0.554575 0.129922 0.133819 0.556102 0.04698705 -0.130506 0.615 0 -0.129911 0.615 0.01243627 -0.04438626 0.615 0.007406711 0.125209 0.615 0.03680318 0.1281459 0.615 0.02470397 0.03551125 0.615 0.02763956 -0.03551125 0.615 0.02763956 -0.1281369 0.615 0.02474528 -0.125209 0.615 0.03680318 0.02461266 0.615 0.03767246 0.0304777 0.615 0.03310757 -0.0180763 0.615 0.04120975 -0.121132 0.615 0.04856705 -0.115978 0.615 0.05983895 0.121146 0.615 0.04852747 0.0180763 0.615 0.04120975 0.115978 0.615 0.05983895 0.03957629 0.615 0.02141755 0.04438626 0.615 0.007406711 0.04256176 0.615 0.01461148 0.129911 0.615 0.01243627 0.130506 0.615 0 0.04499995 0.615 0 -0.02461266 0.615 0.03767246 -0.0304777 0.615 0.03310757 -0.003716051 0.615 0.04484629 -0.01104676 0.615 0.04362297 -0.109749 0.615 0.07061898 0.109749 0.615 0.07061898 0.003716051 0.615 0.04484629 0.01104676 0.615 0.04362297 -0.03957629 0.615 0.02141755 -0.04256176 0.615 0.01461148 -0.04499995 0.615 0 0.133819 0.556102 0.04698705 0.133693 0.557356 0.04694086 0.128576 0.555198 0.04699957 0.128269 0.558258 0.04688698 0.1332049 0.564444 0.04604125 0.127798 0.571985 0.04382318 0.127844 0.565218 0.04587578 0.133094 0.571329 0.04407215 0.129332 0.589372 0.03205466 0.134464 0.589079 0.03236734 0.135184 0.593578 0.026847 0.128086 0.578363 0.04078167 0.13332 0.57783 0.0410825 0.133809 0.583792 0.03714877 0.130803 0.597298 0.02048885 0.13643 0.599842 0.01407825 0.131384 0.599886 0.01393544 0.135868 0.597193 0.02070605 0.136924 0.6020001 0 0.131895 0.6020001 0 0.131763 0.601468 0.007052719 0.1367959 0.601458 0.007119894 0.12863 0.584203 0.03682547 0.130089 0.593768 0.02657085 0.009404778 0.537483 0.138188 0 0.536695 0.1388739 0.006934702 0 0.196104 0.109749 0.615 0.07061898 0.163275 0 0.108841 0.171378 0 0.09558135 -0.008542299 0 0.196043 -0.009404778 0.537159 0.1384699 -0.01869887 0.538664 0.137159 -0.02398836 0 0.194754 -0.02773487 0.540762 0.13533 -0.0392701 0 0.192259 -0.0365532 0.543283 0.133132 -0.05431407 0 0.18856 -0.06901997 0 0.18369 -0.04497414 0.546577 0.130261 -0.05288338 0.550489 0.126851 -0.08328777 0 0.1776739 -0.06029659 0.554985 0.122932 -0.06723248 0.559849 0.118692 -0.09705138 0 0.170548 -0.07369279 0.565092 0.114122 -0.08522045 0.576438 0.104232 -0.09031349 0.582476 0.0989688 -0.122667 0 0.153161 -0.110189 0 0.1623679 -0.09499138 0.588688 0.09355378 -0.09925568 0.595077 0.08798497 -0.145229 0 0.131962 -0.134348 0 0.143024 -0.178992 0 0.08041799 -0.115978 0.615 0.05983895 -0.121132 0.615 0.04856705 -0.106625 0.608247 0.07650566 -0.164175 0 0.107479 -0.155166 0 0.120122 -0.127936 0.575881 0.04210674 -0.127774 0.568945 0.04488337 -0.1286849 0.554257 0.04699409 -0.128012 0.561683 0.04652237 -0.131327 0.599642 0.01470005 -0.129911 0.615 0.01243627 -0.131748 0.601406 0.007449388 -0.130506 0.615 0 -0.130688 0.59676 0.02156567 -0.1281369 0.615 0.02474528 -0.129121 0.587973 0.03349256 -0.125209 0.615 0.03680318 -0.129917 0.592838 0.02787935 -0.128421 0.582277 0.03827458 -0.129773 0.546898 0.04629635 -0.184798 0 0.06599956 -0.131895 0.6020001 0 -0.1721169 0 0.09424448 -0.109749 0.615 0.07061898 -0.10313 0.601601 0.08229809 -0.07968217 0.570637 0.109288 0.02239835 0 0.194947 0.03768587 0 0.192573 0.01871669 0.538634 0.137185 0.0527817 0 0.188998 0.027812 0.540632 0.135443 0.04499834 0.546575 0.130263 0.03666627 0.543193 0.13321 0.06749987 0 0.184251 0.05288875 0.550559 0.12679 0.08185136 0 0.178344 0.06030178 0.555004 0.122916 0.06723576 0.559883 0.118663 0.09563487 0 0.171344 0.108884 0 0.16325 0.07369065 0.565119 0.114099 0.0796827 0.570653 0.109275 0.1213909 0 0.154172 0.133206 0 0.144092 0.08521419 0.576463 0.10421 0.09031391 0.582483 0.0989626 0.09498476 0.588707 0.09353786 0.09925109 0.595089 0.08797466 0.1441259 0 0.133164 0.154211 0 0.121347 0.103126 0.60161 0.08229005 0.106625 0.608248 0.07650488 0.17836 0 0.08180886 0.115978 0.615 0.05983895 0.128576 0.555198 0.04699957 0.121146 0.615 0.04852747 0.184279 0 0.06743609 0.128269 0.558258 0.04688698 0.127844 0.565218 0.04587578 0.127798 0.571985 0.04382318 0.128086 0.578363 0.04078167 0.125209 0.615 0.03680318 0.129332 0.589372 0.03205466 0.1281459 0.615 0.02470397 0.12863 0.584203 0.03682547 0.130803 0.597298 0.02048885 0.129911 0.615 0.01243627 0.130089 0.593768 0.02657085 0.131763 0.601468 0.007052719 0.130506 0.615 0 0.131384 0.599886 0.01393544 0.131895 0.6020001 0 0.130506 0.615 0 0.131895 0.6020001 0 0.136924 0.6020001 0 0.135 0.62 0 0.04499995 0.62 0 0.04499995 0.615 0 -0.128012 0.561683 0.04652237 -0.1330929 0.568871 0.04490649 -0.133357 0.561577 0.04653745 -0.129773 0.546898 0.04629635 -0.1286849 0.554257 0.04699409 -0.1340399 0.554143 0.04699218 -0.133655 0.582227 0.03831058 -0.127936 0.575881 0.04210674 -0.128421 0.582277 0.03827458 -0.127774 0.568945 0.04488337 -0.133216 0.575817 0.04213839 -0.135052 0.592818 0.02790665 -0.129917 0.592838 0.02787935 -0.13578 0.596749 0.02158647 -0.129121 0.587973 0.03349256 -0.134305 0.587939 0.03352648 -0.131327 0.599642 0.01470005 -0.131748 0.601406 0.007449388 -0.136385 0.599637 0.01471406 -0.130688 0.59676 0.02156567 -0.136784 0.601405 0.007456123 -0.131895 0.6020001 0 -0.136924 0.6020001 0 -0.1351169 0.5468 0.04627907 -0.135 0.62 0 -0.136924 0.6020001 0 -0.130506 0.615 0 -0.04499995 0.62 0 -0.04499995 0.615 0 -0.131895 0.6020001 0 -0.102124 0.599857 0.08381885 0.102131 0.599836 0.08383721 0.106211 0.607416 0.07722967 0.09748131 0.592327 0.09038245 -0.0974785 0.592342 0.09036898 -0.09224396 0.584964 0.09680008 0.109749 0.615 0.07061898 -0.109749 0.615 0.07061898 -0.106211 0.607416 0.07722967 0.07996505 0.570915 0.109047 -0.07996928 0.570942 0.109023 -0.07293015 0.564452 0.11468 0.0922451 0.584958 0.09680539 -0.08640807 0.57781 0.103036 0.08640849 0.577786 0.103057 0.06530719 0.558436 0.119924 -0.05714797 0.553018 0.124647 0.05713278 0.552991 0.12467 -0.06531178 0.558449 0.119912 0.07292556 0.564439 0.114691 -0.02986669 0.540964 0.135154 0.02984976 0.540952 0.135164 0.0393455 0.544179 0.132351 -0.03935205 0.544184 0.132346 0.04845678 0.548211 0.128836 -0.04847586 0.548233 0.128817 -0.01009726 0.537178 0.138454 0 0.536695 0.1388739 0.01007229 0.537175 0.138457 0.0200569 0.5386 0.137214 -0.02008676 0.538612 0.137203 -0.184798 0 0.06599956 -0.184267 0 0.08092808 -0.178992 0 0.08041799 -0.008735179 0 0.201065 -0.008542299 0 0.196043 -0.02470159 0 0.1997359 -0.159948 0 0.122155 -0.155166 0 0.120122 -0.16912 0 0.109097 -0.177282 0 0.09527009 -0.164175 0 0.107479 -0.1721169 0 0.09424448 -0.134348 0 0.143024 -0.1497009 0 0.13451 -0.138574 0 0.1459529 -0.145229 0 0.131962 -0.110189 0 0.1623679 -0.126503 0 0.156526 -0.113699 0 0.166065 -0.122667 0 0.153161 -0.08328777 0 0.1776739 -0.1001099 0 0.174589 -0.08595246 0 0.181981 -0.09705138 0 0.170548 -0.05431407 0 0.18856 -0.07119047 0 0.188242 -0.05603468 0 0.1933 -0.06901997 0 0.18369 -0.02398836 0 0.194754 -0.04047346 0 0.197143 -0.0392701 0 0.192259 0.02239835 0 0.194947 0.006934702 0 0.196104 0.02322298 0 0.19991 0.007255136 0 0.2011269 0.0527817 0 0.188998 0.03768587 0 0.192573 0.05459415 0 0.193708 0.03902828 0 0.197437 0.06981527 0 0.18876 0.06749987 0 0.184251 0.08185136 0 0.178344 0.09883838 0 0.175315 0.09563487 0 0.171344 0.0845865 0 0.1826159 0.108884 0 0.16325 0.125365 0 0.157442 0.1213909 0 0.154172 0.112443 0 0.166914 0.133206 0 0.144092 0.148724 0 0.135592 0.1441259 0 0.133164 0.1374599 0 0.146999 0.154211 0 0.121347 0.168326 0 0.110318 0.163275 0 0.108841 0.159007 0 0.123374 0.171378 0 0.09558135 0.183631 0 0.08235996 0.17836 0 0.08180886 0.176535 0 0.0966472 0.189617 0 0.0674569 0.184279 0 0.06743609 -0.190137 0 0.06597876 0.0151425 0.53984 0.1427659 0.005050539 0.53891 0.143577 -0.005080997 0.538914 0.1435739 0.09627366 0.589835 0.09918719 0.09051835 0.582602 0.105492 -0.09051787 0.58263 0.105468 0.02506977 0.54168 0.141162 -0.01514995 0.539843 0.142763 -0.02509158 0.541689 0.141154 0.03477305 0.544399 0.138793 -0.03480046 0.544418 0.138775 0.04416906 0.547953 0.135694 0.05316716 0.552272 0.1319299 -0.04418295 0.547969 0.13568 -0.05317497 0.552281 0.131922 0.0617066 0.557275 0.127568 -0.06172209 0.557302 0.1275449 0.06974995 0.562903 0.122663 0.07725036 0.569068 0.117289 -0.06975895 0.56293 0.12264 -0.07725095 0.569071 0.117286 -0.08417755 0.575674 0.111531 0.08417409 0.575651 0.111551 -0.09627115 0.589849 0.09917515 -0.101443 0.597264 0.0927115 0.101445 0.597253 0.0927214 -0.106043 0.604812 0.0861327 0.10605 0.60479 0.0861513 0.110103 0.612394 0.07952296 -0.110103 0.612394 0.07952296 -0.113629 0.62 0.0728935 0.113629 0.62 0.0728935 -0.1351169 0.5468 0.04627907 -0.184798 0 0.06599956 -0.129773 0.546898 0.04629635 -0.190137 0 0.06597876 0.128576 0.555198 0.04699957 0.184279 0 0.06743609 0.133819 0.556102 0.04698705 0.189617 0 0.0674569</float_array>
          <technique_common>
            <accessor source="#ID4-mesh-positions-array" count="510" stride="3">
              <param name="X" type="float"/>
              <param name="Y" type="float"/>
              <param name="Z" type="float"/>
            </accessor>
          </technique_common>
        </source>
        <source id="ID4-mesh-normals">
          <float_array id="ID4-mesh-normals-array" count="1410">0.9863622 0 -0.1645895 1 0 -2.31117e-5 1 0 -2.25306e-5 0.7891429 0 -0.6142098 0.8794746 0 -0.475946 0.879473 0 -0.4759489 0.9458162 0 -0.3247029 0.9863619 0 -0.1645916 0.9458153 0 -0.3247051 0.5469458 0 -0.8371681 0.4016942 0 -0.9157739 0.5469469 0 -0.8371673 0.789142 0 -0.614211 0.677285 0 -0.7357208 0.6772845 0 -0.7357212 0.08258092 0 -0.9965844 0.08257919 0 -0.9965846 -0.08258128 0 -0.9965844 0.2454847 0 -0.9694005 0.4016915 0 -0.9157751 0.2454814 0 -0.9694013 -0.5469458 0 -0.8371681 -0.4016906 0 -0.9157755 -0.4016905 0 -0.9157755 -0.2454836 0 -0.9694008 -0.2454849 0 -0.9694005 -0.08258146 0 -0.9965844 -0.7891466 0 -0.6142051 -0.7891458 0 -0.6142059 -0.6772837 0 -0.735722 -0.5469469 0 -0.8371673 -0.6772816 0 -0.7357239 -0.8794724 0 -0.47595 -0.879472 0 -0.4759505 -0.9458163 0 -0.3247022 -0.9458163 0 -0.3247023 -0.9863616 0 -0.1645928 -0.9863616 0 -0.1645932 -1 0 -2.2158e-5 -1 0 -2.15918e-5 0 1 4.43589e-6 0 1 0 0 1 -5.02505e-7 0 1 9.19525e-6 0 1 -2.34718e-6 0 1 -1.11768e-5 0 1 1.83156e-6 0 1 -1.93693e-6 0 1 -1.70296e-5 0 1 -2.09835e-5 0 1 8.16119e-6 0 1 -1.70213e-5 0 1 -5.79306e-6 0 1 -2.34672e-6 0 1 1.13172e-5 0.9439317 0.1062645 0.3125714 0.923282 0.1063762 0.3690995 0.9397807 0.1062642 0.3248388 0.9381921 0.1062631 0.3293989 -0.2259716 0.1062645 0.9683206 -0.2001631 0.1063104 0.9739779 -0.1627659 0.1062633 0.9809258 0.9580962 0.1062638 0.2660069 0.9541674 0.1063144 0.2797535 0.9502534 0.1062623 0.2927917 0.9073392 0.1061062 0.4067888 0.9368239 0.1062647 0.3332701 0.9752847 0.1062657 0.1937198 0.976419 0.1062747 0.1879141 0.9667189 0.1062683 0.2327264 0.8841642 0.106579 0.4548569 0.8721959 0.1061545 0.4774993 0.9890824 0.1062673 0.1020947 0.9898468 0.1062781 0.09438407 0.9829788 0.106277 0.1498599 0.8315726 0.1061327 0.5451816 0.836928 0.1062663 0.5368977 0.809542 0.1062641 0.5773646 0.7856663 0.1061096 0.6094828 0.9929904 0.1062836 0.05170983 0.9943381 0.106263 -9.73773e-6 0.7798241 0.106264 0.6169137 0.7477738 0.1062647 0.6553947 0.9943379 0.1062651 2.91951e-5 0.7347428 0.1061176 0.6699941 0.7133706 0.1062644 0.6926835 0.6193482 0.1061024 0.777914 0.6372837 0.106264 0.7632677 0.5954439 0.1062639 0.7963383 0.6789133 0.1064013 0.7264679 0.676577 0.1062641 0.7286642 0.4537068 0.1062642 0.8847926 0.4178915 0.1061778 0.902271 0.4883054 0.1061103 0.8661977 0.5037152 0.106264 0.8573092 0.5555737 0.1061087 0.8246691 0.5509207 0.106264 0.8277647 0.269493 0.1062936 0.9571182 0.2870319 0.1062632 0.9520089 0.2262924 0.1062633 0.9682459 0.3452917 0.1062642 0.93246 0.3449523 0.106208 0.932592 -0.03290039 0.1062642 0.9937936 0.03561395 0.1062384 0.9937028 0.03289681 0.1061835 0.9938023 0.09854727 0.1062642 0.9894425 0.1144873 0.1062071 0.9877312 0.1629095 0.1062636 0.980902 -0.2868344 0.1062646 0.9520682 -0.2767522 0.1062639 0.9550477 -0.09855771 0.1062635 0.9894416 -0.1221382 0.1064595 0.986787 -0.3454602 0.1062646 0.9323975 -0.3517555 0.1060991 0.9300597 -0.4245907 0.1060451 0.8991536 -0.4010643 0.106264 0.9098656 -0.453845 0.1062638 0.8847219 -0.4947128 0.1060959 0.8625561 -0.503827 0.1062643 0.8572435 -0.5510794 0.1062638 0.8276591 -0.6767101 0.106265 0.7285404 -0.6845538 0.1061205 0.7211967 -0.6252983 0.1063541 0.7731047 -0.5955818 0.1062646 0.7962351 -0.5616533 0.1061078 0.8205405 -0.8095349 0.106265 0.5773744 -0.835693 0.1062692 0.5388176 -0.7901517 0.1061146 0.6036555 -0.7397217 0.1061025 0.6644954 -0.7135177 0.1062646 0.6925319 -0.9232949 0.1063207 0.3690833 -0.9393855 0.1062651 0.3259795 -0.9104663 0.1061226 0.3997365 -0.8369271 0.1062637 0.5368996 -0.9541666 0.1063198 0.2797542 -0.9421483 0.1062668 0.3179054 -0.9388085 0.1062653 0.3276373 -0.9383383 0.1062632 0.3289822 -0.9885996 0.1062659 0.1066697 -0.9898445 0.106298 0.09438717 -0.9928625 0.1062717 0.05413496 -0.9943376 0.1062673 4.86523e-6 -0.9819962 0.1062744 0.1561706 -0.9764202 0.1062653 0.1879132 -0.9647293 0.1062672 0.2408416 -0.9737616 0.1062666 0.2012359 -0.9480401 0.1062642 0.2998799 -0.9558471 0.1062639 0.2739788 -0.9943378 0.1062662 1.25955e-5 -0.8840788 0.106402 0.4550644 -0.875768 0.1063013 0.4708828 -0.7798469 0.1062644 0.6168847 -0.93941 0.1062641 0.3259095 -0.9383364 0.1062642 0.3289874 -0.9406911 0.1062638 0.3221932 -0.747846 0.1062649 0.6553123 -0.6374265 0.1062645 0.7631484 -0.04321676 0.1062012 0.9934051 0.1926689 0.1063244 0.9754865 0.4008925 0.106264 0.9099413 0.9381903 0.1062648 0.3294039 0 -1 0 0 -1 -5.04146e-6 0 -1 -3.88196e-6 0 -1 6.18978e-6 0 -1 -1.80655e-5 0 -1 -1.155e-5 0 -1 -1.19141e-5 0 -1 1.17643e-5 0 -1 2.40121e-6 0 -1 -3.76692e-6 0 -1 -7.77941e-5 0 -1 1.58403e-6 0 -1 1.80564e-5 0 -1 2.63408e-6 0 -1 -3.94675e-6 0 -1 6.06596e-6 0 -1 -1.22864e-5 -6.27944e-7 -0.02343589 -0.9997254 5.65371e-7 -0.00422579 -0.9999911 -5.9884e-7 -0.05011719 -0.9987434 -6.19912e-7 -0.06931757 -0.9975947 -1.08632e-5 -0.2009376 -0.9796041 3.84422e-5 -0.3614059 -0.9324087 -2.72125e-5 -0.3474219 -0.9377089 2.22228e-5 -0.2174324 -0.9760755 1.89542e-5 -0.7313087 -0.6820467 7.19563e-7 -0.8208004 -0.5712152 -1.20187e-6 -0.7250781 -0.6886668 1.50201e-5 -0.4970837 -0.8677026 -1.49803e-5 -0.6125993 -0.7903937 -3.11907e-5 -0.4857608 -0.8740918 4.98095e-6 -0.8999716 -0.4359486 2.19255e-5 -0.955011 -0.2965703 -4.12128e-6 -0.9540873 -0.2995288 -1.24839e-5 -0.8977385 -0.4405288 -2.24367e-6 -1 -3.36989e-5 -6.59435e-6 -0.9886822 -0.1500253 -1.1327e-6 -1 -2.94e-5 -7.86141e-6 -0.9884626 -0.1514652 2.30493e-5 -0.6213304 -0.7835487 1.54879e-6 -0.8248523 -0.5653483 -0.06757932 -0.1062642 -0.9920388 -0.03532785 -0.1063251 -0.9937037 -9.63792e-6 -0.1062635 -0.994338 -0.8361716 -0.1063808 -0.5380523 -0.8683564 -0.1061323 -0.4844514 -0.8274458 -0.1061221 -0.5514271 0.04336833 -0.1061124 -0.993408 0.06757926 -0.1062635 -0.9920389 0.1344693 -0.1062645 -0.9852035 0.1214627 -0.1063299 -0.9868845 0.1997172 -0.1062665 -0.9740742 0.1988276 -0.106584 -0.9742215 0.2751409 -0.1062326 -0.9555167 0.2634168 -0.1062642 -0.9588116 0.3497108 -0.1060613 -0.9308349 0.324671 -0.1062263 -0.939843 0.3828215 -0.1062635 -0.9176905 0.4221407 -0.1061167 -0.900298 0.4379926 -0.1062634 -0.8926762 0.4902327 -0.1062639 -0.8650895 0.4917224 -0.106159 -0.8642566 0.5395333 -0.1062642 -0.8352316 0.6294842 -0.106265 -0.7697127 0.6215575 -0.1061135 -0.7761483 0.6703392 -0.1062641 -0.7344069 0.5584039 -0.1060836 -0.8227584 0.7085285 -0.1062649 -0.6976355 0.7358621 -0.1061132 -0.6687653 0.7441467 -0.1062642 -0.6595101 0.6808193 -0.1061134 -0.7247241 0.9071989 -0.106554 -0.4069848 0.9229396 -0.106365 -0.3699582 0.8835763 -0.1065683 -0.4560002 0.8079209 -0.1062651 -0.5796306 0.7863274 -0.1061206 -0.6086277 0.8318657 -0.1061443 -0.544732 0.9381473 -0.1062618 -0.329527 0.9444898 -0.1062701 -0.310879 0.9340008 -0.1062635 -0.3411021 0.9345443 -0.1062632 -0.3396104 0.9881623 -0.1062727 -0.110641 0.9927577 -0.1062268 -0.05610728 0.9898279 -0.1062532 -0.09460991 0.9943374 -0.1062695 -3.23225e-5 0.9810649 -0.106273 -0.1619194 0.9763305 -0.1062875 -0.1883666 0.9539747 -0.1063099 -0.2804115 0.9624735 -0.1062719 -0.2497021 0.9722051 -0.1062635 -0.2086276 0.9529163 -0.1062639 -0.2840045 0.9364073 -0.1062618 -0.3344396 0.9365335 -0.1062641 -0.3340855 0.9943379 -0.1062642 5.93997e-6 0.8721522 -0.1061651 -0.4775768 0.8362002 -0.1062648 -0.5380308 0.7772382 -0.1062639 -0.6201685 0.585905 -0.106264 -0.8033826 -0.1134415 -0.1065398 -0.987816 -0.1912255 -0.1062507 -0.9757785 -0.1344088 -0.1062877 -0.9852093 -0.1999418 -0.1062648 -0.9740284 -0.267723 -0.1062402 -0.9576207 -0.3245819 -0.1062639 -0.9398694 -0.2636595 -0.1062644 -0.9587447 -0.3420998 -0.1061097 -0.9336534 -0.3826894 -0.1062643 -0.9177454 -0.4378551 -0.1062645 -0.8927435 -0.4146893 -0.1061033 -0.903756 -0.4900924 -0.1062637 -0.8651691 -0.4847174 -0.106162 -0.8682044 -0.5519754 -0.1063669 -0.8270486 -0.539351 -0.1062646 -0.8353493 -0.5857594 -0.1062646 -0.8034886 -0.6152234 -0.1061161 -0.7811785 -0.6748949 -0.1061277 -0.7302424 -0.6293335 -0.1062648 -0.7698358 -0.6702008 -0.1062643 -0.7345331 -0.7083835 -0.1062647 -0.6977828 -0.7440732 -0.1062644 -0.6595931 -0.730432 -0.1061204 -0.6746909 -0.7813463 -0.1061154 -0.6150103 -0.7772473 -0.1062644 -0.6201568 -0.807954 -0.1062643 -0.5795847 -0.9038662 -0.1061095 -0.4144475 -0.8835752 -0.1061934 -0.4560901 -0.9338938 -0.1062636 -0.3413949 -0.9338026 -0.1059458 -0.3417431 -0.9229542 -0.1063255 -0.3699334 -0.9338993 -0.1062641 -0.3413797 -0.9359043 -0.1062641 -0.3358439 -0.9405737 -0.1062642 -0.3225353 -0.9539771 -0.1062894 -0.2804114 -0.9474722 -0.1062647 -0.3016694 -0.9651362 -0.1062636 -0.2392078 -0.9763329 -0.106269 -0.1883646 -0.9559295 -0.1062635 -0.2736911 -0.9823523 -0.1062769 -0.1539134 -0.989826 -0.106269 -0.0946123 -0.9742258 -0.1062623 -0.1989789 -0.9929126 -0.1062932 -0.05316483 -0.9943381 -0.1062625 -2.98023e-7 -0.9887913 -0.1062641 -0.1048793 -0.9943379 -0.1062648 -1.23825e-5 0 0 -1 0 0 -1 0 0 -1 0 0 -1 -2.87597e-6 -0.1422214 -0.9898349 2.70968e-6 -0.1399238 -0.9901623 -4.11875e-5 -0.2951754 -0.9554432 2.03261e-7 0.1723505 -0.9850357 2.49119e-6 0.01825708 -0.9998334 7.46309e-7 0.01581448 -0.999875 2.35828e-6 -0.5793089 -0.8151082 -4.23896e-6 -0.5803357 -0.8143775 -1.03643e-5 -0.4442312 -0.8959122 2.77463e-5 -0.2966739 -0.9549789 2.80331e-5 -0.4430057 -0.8965188 1.49215e-6 -0.8046592 -0.5937371 0 -0.8882876 -0.4592876 0 -0.8050702 -0.5931795 1.30136e-6 -0.701574 -0.7125967 1.77024e-7 -0.7008318 -0.7133265 1.20682e-6 -0.9498222 -0.3127903 0 -0.949745 -0.3130248 0 -0.9873598 -0.1584948 1.25379e-7 -0.8885112 -0.458855 -4.57454e-7 -0.9873393 -0.1586234 1.0198e-6 -1 -3.30635e-5 5.42142e-6 -1 -4.43608e-5 -2.22214e-6 0.1744498 -0.9846662 0 0 -1 0 0 -1 0 0 -1 0 0 -1 0 -0.657098 -0.7538052 1.52531e-6 -0.6570719 -0.7538281 0 -0.6570715 -0.7538282 2.19863e-6 -0.6570755 -0.7538249 1.83625e-7 -0.6570799 -0.7538209 -3.46622e-6 -0.6570674 -0.7538319 3.91655e-6 -0.6571138 -0.7537914 -5.46148e-6 -0.6570947 -0.7538081 -1.37205e-6 -0.6570552 -0.7538425 0 -0.6570732 -0.7538268 2.17304e-7 -0.6570733 -0.7538268 0 -0.6570732 -0.7538268 9.92658e-6 -0.6573593 -0.7535773 9.28264e-6 -0.6570585 -0.7538397 2.51893e-6 -0.6571368 -0.7537713 2.54717e-6 -0.6571368 -0.7537713 2.55558e-6 -0.6571368 -0.7537713 6.75319e-6 -0.6572465 -0.7536757 1.2062e-6 -0.6571266 -0.7537803 1.2546e-6 -0.6571267 -0.7537803 1.25472e-6 -0.6571266 -0.7537803 6.63614e-6 -0.65713 -0.7537774 -3.69293e-6 -0.6569933 -0.7538964 -1.11083e-6 -0.6570158 -0.7538769 -1.65676e-6 -0.6570377 -0.7538577 3.95885e-6 -0.6571525 -0.7537576 2.15568e-6 -0.6571276 -0.7537795 -1.67229e-6 -0.6570222 -0.7538714 4.65446e-7 -0.657081 -0.75382 2.95775e-7 -0.6570971 -0.7538061 1.54164e-6 -0.6570817 -0.7538194 4.77513e-7 -0.657059 -0.7538392 0 -0.657096 -0.753807 0 -0.6570526 -0.7538447 0 -0.6570804 -0.7538205 0 -1 0 0 -1 0 0 -1 0 0 -1 0 0 -1 0 0 -1 0 0 -1 0 0 -1 0 0 -1 0 0 -1 0 0 -1 0 0 -1 0 0 -1 0 0 -1 0 0 -1 0 0 -1 0 0 -1 0 0 -1 0 0 -1 0 0 -1 0 0 -1 0 0 -1 0 0 -1 0 0 -1 0 0 -1 0 0 -1 0 0 -1 0 0 -1 0 0 -1 0 0 -1 0 0 -1 0 0 -1 0 0 -1 0 0 -1 0 0 -1 0 0 -1 0 0 -1 0 0 -1 0 0 -1 0 0 -1 0 0 -1 0 0 -1 0 0 -1 0 0 -1 0 0 -1 0 0 -1 0 0 -1 0 0 -1 0 0 -1 0 0 -1 0 0 -1 0 0 -1 0 0 -1 0 0 -1 0 0 -1 0 0 -1 0 0 -1 0 0 -1 0 0 -1 0 0 -1 0 0 -1 0 0 -1 0 0.003902435 -0.03639578 -0.9993299 0.003893196 -0.03639471 -0.9993299 0.003892183 -0.036394 -0.99933 0.003895223 -0.03639382 -0.9993299 4.12637e-5 0.6571446 0.7537646 1.50117e-6 0.6570755 0.7538249 -8.28649e-6 0.6571692 0.7537431 -1.85742e-6 0.6571792 0.7537344 -1.81937e-6 0.6571792 0.7537344 -1.9079e-6 0.6571792 0.7537344 -2.25102e-6 0.656926 0.7539552 -1.8973e-6 0.6570441 0.7538523 -1.57793e-5 0.6572411 0.7536804 -1.59613e-5 0.6570807 0.7538204 -7.23843e-7 0.6570079 0.7538838 -7.98029e-7 0.6570475 0.7538492 -9.89432e-7 0.6571711 0.7537415 -1.14857e-6 0.6570174 0.7538756 3.28384e-6 0.6570321 0.7538627 3.25794e-6 0.6571133 0.7537919 2.91714e-6 0.6570782 0.7538225 2.95195e-6 0.6570221 0.7538713 -1.94224e-6 0.6571635 0.7537481 1.57918e-7 0.657042 0.753854 -1.89819e-6 0.6570676 0.7538317 1.53339e-6 0.65707 0.7538296 1.49964e-7 0.6570804 0.7538207 7.57653e-7 0.6570974 0.7538058 -1.24039e-6 0.6570994 0.753804 7.96534e-7 0.6570567 0.7538413 2.19294e-6 0.6570585 0.7538396 -1.26246e-6 0.6570971 0.7538059 0 0.6571194 0.7537866 2.23083e-6 0.6570897 0.7538124 0 0.6570556 0.7538422 0 0.6570569 0.753841</float_array>
          <technique_common>
            <accessor source="#ID4-mesh-normals-array" count="470" stride="3">
              <param name="X" type="float"/>
              <param name="Y" type="float"/>
              <param name="Z" type="float"/>
            </accessor>
          </technique_common>
        </source>
        <vertices id="ID4-mesh-vertices">
          <input semantic="POSITION" source="#ID4-mesh-positions"/>
        </vertices>
        <triangles material="ID10-material" count="452">
          <input semantic="VERTEX" source="#ID4-mesh-vertices" offset="0"/>
          <input semantic="NORMAL" source="#ID4-mesh-normals" offset="1"/>
          <p>0 0 2 1 1 2 3 3 5 4 4 5 6 6 8 7 7 8 9 9 11 10 10 11 12 12 14 13 13 14 15 15 17 16 16 17 18 18 20 19 19 20 21 21 23 22 22 23 24 24 26 25 25 26 27 27 29 28 28 29 30 30 28 29 31 31 32 32 27 27 33 33 27 27 32 32 29 28 33 33 35 34 34 35 34 35 32 32 33 33 36 36 37 37 35 34 34 35 35 34 37 37 38 38 36 36 39 39 36 36 38 38 37 37 21 21 30 30 31 31 28 29 29 28 31 31 22 23 23 22 24 24 30 30 21 21 22 23 26 25 16 17 25 26 23 22 26 25 24 24 15 15 19 20 17 16 16 17 17 16 25 26 11 10 20 19 18 18 18 18 19 20 15 15 14 13 9 9 10 11 9 9 20 19 11 10 12 12 13 14 3 3 14 13 10 11 13 14 4 5 5 4 7 8 12 12 3 3 4 5 6 6 0 0 8 7 5 4 6 6 7 8 1 2 8 7 0 0 40 40 42 40 41 40 43 41 45 41 44 41 46 41 43 41 44 41 47 42 45 42 48 42 45 43 47 43 44 43 43 44 46 44 49 44 47 45 48 45 50 45 51 41 53 41 52 41 54 41 55 41 49 41 43 41 49 41 55 41 56 46 57 46 55 46 55 47 54 47 56 47 58 41 59 41 57 41 58 48 57 48 56 48 60 49 59 49 52 49 59 50 60 50 57 50 60 41 52 41 53 41 42 51 62 51 61 51 42 52 40 52 62 52 63 41 65 41 64 41 65 47 61 47 66 47 67 41 63 41 68 41 63 53 64 53 68 53 67 54 70 54 69 54 69 41 63 41 67 41 70 42 71 42 69 42 70 45 72 45 71 45 66 41 64 41 65 41 42 41 61 41 65 41 40 41 41 41 51 41 51 41 73 41 53 41 73 41 51 41 41 41 74 55 76 56 75 57 76 56 77 58 75 57 78 59 80 60 79 61 81 62 83 63 82 64 83 63 76 56 74 55 84 65 85 66 76 56 86 67 88 68 87 69 83 63 81 62 87 69 89 70 84 65 76 56 89 70 90 71 84 65 91 72 93 73 92 74 88 68 92 74 93 73 94 75 90 71 95 76 96 77 97 78 94 75 98 79 99 80 93 73 93 73 91 72 98 79 96 77 100 81 97 78 97 78 100 81 101 82 102 83 99 80 98 79 97 78 101 82 103 84 86 67 92 74 88 68 88 68 83 63 87 69 83 63 74 55 82 64 104 85 103 84 101 82 95 76 90 71 89 70 105 86 107 87 106 88 108 89 104 85 109 90 110 91 112 92 111 93 113 94 115 95 114 96 116 97 118 98 117 99 112 92 120 100 119 101 121 102 123 103 122 104 124 105 126 106 125 107 78 59 128 108 127 109 129 110 79 61 130 111 127 109 132 112 131 113 132 112 127 109 128 108 133 114 131 113 134 115 132 112 134 115 131 113 135 116 136 117 133 114 133 114 134 115 135 116 80 60 78 59 127 109 136 117 138 118 137 119 135 116 138 118 136 117 139 120 141 121 140 122 142 123 140 122 143 124 144 125 146 126 145 127 147 128 141 121 148 129 149 130 151 131 150 132 152 133 146 126 144 125 153 134 154 135 149 130 149 130 156 136 155 137 157 138 159 139 158 140 159 139 160 141 158 140 161 142 159 139 157 138 161 142 162 143 159 139 162 143 163 144 153 134 162 143 161 142 164 145 165 146 154 135 153 134 166 147 153 134 163 144 165 146 153 134 166 147 154 135 156 136 149 130 151 131 149 130 155 137 160 141 167 148 158 140 168 149 150 132 169 150 168 149 149 130 150 132 168 149 169 150 146 126 170 151 144 125 145 127 152 133 168 149 146 126 164 145 163 144 162 143 151 152 155 153 171 154 147 128 172 155 170 151 170 151 145 127 147 128 141 121 139 120 148 129 147 128 148 129 172 155 140 122 173 156 139 120 143 124 137 119 142 123 173 156 140 122 142 123 143 124 136 117 137 119 130 111 79 61 80 60 121 102 129 110 174 157 174 157 129 110 130 111 122 104 123 103 126 106 121 102 174 157 123 103 175 158 125 107 126 106 124 105 122 104 126 106 117 99 175 158 116 97 175 158 117 99 125 107 120 100 118 98 119 101 119 101 118 98 116 97 112 92 110 91 176 159 112 92 176 159 120 100 111 93 115 95 113 94 110 91 111 93 113 94 106 88 115 95 105 86 106 88 114 96 115 95 109 90 107 87 108 89 108 89 107 87 105 86 94 75 95 76 96 77 108 89 103 84 104 85 85 66 177 160 76 56 77 58 76 56 177 160 178 161 180 161 179 161 181 161 183 161 182 161 184 162 186 162 185 162 187 161 188 161 181 161 189 163 191 163 190 163 192 164 194 164 193 164 193 165 187 165 192 165 182 166 183 166 195 166 188 161 183 161 181 161 196 167 198 167 197 167 196 168 200 168 199 168 196 169 199 169 198 169 182 161 197 161 198 161 186 161 202 161 201 161 191 170 204 170 203 170 197 161 182 161 195 161 191 161 203 161 205 161 203 171 207 171 206 171 187 172 181 172 192 172 189 173 190 173 201 173 194 170 207 170 208 170 193 161 194 161 208 161 194 161 206 161 207 161 206 174 205 174 203 174 204 161 191 161 189 161 201 175 190 175 186 175 184 161 185 161 209 161 202 161 186 161 184 161 179 161 210 161 185 161 209 161 185 161 210 161 178 176 211 176 180 176 179 177 180 177 210 177 212 178 214 179 213 180 215 181 216 182 213 180 217 183 219 184 218 185 214 179 215 181 213 180 220 186 222 187 221 188 223 189 225 190 224 191 226 192 228 193 227 194 227 194 229 195 226 192 230 196 232 197 231 198 230 196 233 199 232 197 233 199 227 194 228 193 233 199 228 193 232 197 220 186 221 188 234 200 235 201 226 192 229 195 220 186 235 201 222 187 222 187 235 201 229 195 234 200 225 190 223 189 225 190 234 200 221 188 224 191 219 184 217 183 224 191 217 183 223 189 215 181 218 185 216 182 216 182 218 185 219 184 236 202 238 203 237 204 239 205 241 206 240 207 242 208 243 209 237 204 237 204 238 203 242 208 244 210 243 209 245 211 242 208 245 211 243 209 246 212 245 211 247 213 245 211 246 212 244 210 247 213 249 214 248 215 248 215 246 212 247 213 250 216 251 217 249 214 248 215 249 214 251 217 252 218 250 216 253 219 250 216 252 218 251 217 254 220 253 219 255 221 254 220 252 218 253 219 256 222 257 223 255 221 255 221 253 219 256 222 258 224 260 225 259 226 256 222 261 227 257 223 262 228 264 229 263 230 262 228 259 226 265 231 266 232 268 233 267 234 269 235 271 236 270 237 268 233 273 238 272 239 274 240 275 241 268 233 276 242 278 243 277 244 277 244 278 243 279 245 280 246 277 244 281 247 277 244 280 246 276 242 281 247 283 248 282 249 281 247 282 249 284 250 283 248 268 233 272 239 285 251 282 249 283 248 283 248 272 239 285 251 273 238 268 233 275 241 274 240 287 252 286 253 279 245 278 243 288 254 267 234 289 255 266 232 266 232 287 252 268 233 270 237 289 255 290 256 271 236 269 235 291 257 267 234 290 256 289 255 281 247 284 250 280 246 287 252 274 240 268 233 269 235 270 237 290 256 291 257 263 230 264 229 264 229 271 236 291 257 264 229 262 228 265 231 265 231 259 226 260 225 258 224 292 258 260 225 292 258 261 227 260 225 292 258 257 223 261 227 238 203 236 202 293 259 294 260 293 259 295 261 236 202 295 261 293 259 294 260 297 262 296 263 297 262 294 260 295 261 298 264 296 263 299 265 296 263 297 262 299 265 300 266 298 264 301 267 298 264 300 266 296 263 301 267 303 268 302 269 302 269 300 266 301 267 304 270 305 271 303 268 302 269 303 268 305 271 306 272 304 270 307 273 304 270 306 272 305 271 308 274 309 275 306 272 306 272 307 273 308 274 310 276 309 275 311 277 308 274 311 277 309 275 312 278 313 279 310 276 312 278 310 276 311 277 314 280 315 281 313 279 310 276 313 279 315 281 316 282 314 280 317 283 314 280 316 282 315 281 318 284 240 207 316 282 316 282 317 283 318 284 319 285 241 206 320 286 318 284 239 205 240 207 321 287 323 288 322 289 324 290 321 287 322 289 324 290 322 289 325 291 319 285 322 289 323 288 326 292 328 293 327 294 328 293 326 292 322 289 329 295 328 293 330 296 328 293 329 295 331 297 332 298 330 296 333 299 330 296 332 298 334 300 335 301 333 299 336 302 333 299 335 301 337 303 338 304 335 301 336 302 332 298 333 299 337 303 330 296 334 300 329 295 328 293 331 297 327 294 322 289 326 292 325 291 322 289 319 285 320 286 241 206 239 205 320 286 339 305 341 305 340 305 341 306 339 306 342 306 343 307 339 307 344 307 343 308 342 308 339 308 345 309 347 310 346 311 348 312 350 313 349 314 351 315 353 316 352 317 354 318 346 311 355 319 356 320 358 321 357 322 359 323 360 324 356 320 361 325 363 326 362 327 361 325 364 328 358 321 365 329 366 330 362 327 362 327 363 326 365 329 363 326 361 325 358 321 365 329 367 331 366 330 356 320 357 322 359 323 358 321 364 328 357 322 360 324 359 323 353 316 351 315 352 317 355 319 360 324 353 316 351 315 354 318 345 309 346 311 352 317 354 318 355 319 345 309 349 314 347 310 348 312 368 332 350 313 349 314 350 313 347 310 369 333 371 333 370 333 372 334 373 334 371 334 372 335 371 335 369 335 370 336 371 336 374 336 375 337 377 337 376 337 378 338 380 338 379 338 381 339 383 339 382 339 384 340 386 340 385 340 387 341 389 341 388 341 390 342 392 342 391 342 393 343 394 343 390 343 395 344 397 344 396 344 398 345 400 345 399 345 401 346 403 347 402 348 404 349 401 349 405 349 405 350 396 350 404 350 401 351 404 352 403 353 398 354 397 354 395 354 395 355 396 356 405 357 397 358 398 358 399 358 391 359 392 359 400 359 392 360 399 360 400 360 393 361 386 361 394 361 390 362 391 362 393 362 385 363 389 363 384 363 386 364 384 364 394 364 380 365 387 365 388 365 388 366 389 366 385 366 376 367 378 367 379 367 378 368 387 368 380 368 377 369 375 369 383 369 376 370 379 370 375 370 383 371 381 371 377 371 406 372 408 372 407 372 409 373 411 373 410 373 412 374 414 374 413 374 415 375 417 375 416 375 413 376 414 376 416 376 418 377 420 377 419 377 419 378 412 378 421 378 422 379 424 379 423 379 423 380 420 380 425 380 426 381 428 381 427 381 427 382 424 382 429 382 430 383 432 383 431 383 431 384 428 384 433 384 411 385 435 385 434 385 435 386 432 386 436 386 437 387 439 387 438 387 409 388 438 388 440 388 441 389 443 389 442 389 444 390 437 390 442 390 443 391 441 391 445 391 445 392 441 392 446 392 447 393 449 393 448 393 447 394 450 394 446 394 451 395 453 395 452 395 451 396 454 396 449 396 455 397 457 397 456 397 455 398 458 398 453 398 459 399 461 399 460 399 459 400 462 400 457 400 463 401 465 401 464 401 463 402 466 402 461 402 465 403 467 403 464 403 465 404 468 404 467 404 463 405 464 405 466 405 466 406 460 406 461 406 460 407 462 407 459 407 462 408 456 408 457 408 456 409 458 409 455 409 458 410 452 410 453 410 452 411 454 411 451 411 454 412 448 412 449 412 448 413 450 413 447 413 450 414 445 414 446 414 442 415 443 415 444 415 439 416 437 416 444 416 439 417 440 417 438 417 409 418 410 418 438 418 411 419 434 419 410 419 435 420 436 420 434 420 432 421 430 421 436 421 431 422 433 422 430 422 428 423 426 423 433 423 427 424 429 424 426 424 424 425 422 425 429 425 423 426 425 426 422 426 420 427 418 427 425 427 419 428 421 428 418 428 412 429 413 429 421 429 415 430 416 430 414 430 417 431 407 431 408 431 417 432 415 432 407 432 407 433 469 433 406 433 502 434 504 434 503 434 502 435 503 435 505 435 506 436 508 436 507 436 507 437 508 437 509 437</p>
        </triangles>
        <triangles material="ID11-material" count="30">
          <input semantic="VERTEX" source="#ID4-mesh-vertices" offset="0"/>
          <input semantic="NORMAL" source="#ID4-mesh-normals" offset="1"/>
          <p>470 438 472 438 471 438 473 439 475 439 474 439 476 440 477 440 470 440 472 441 470 442 477 443 476 444 479 444 478 444 478 445 477 445 476 445 480 446 479 446 481 446 479 447 480 447 478 447 482 448 483 448 481 448 480 449 481 449 483 449 482 450 485 450 484 450 484 451 483 451 482 451 486 452 485 452 487 452 485 453 486 453 484 453 488 454 489 454 487 454 486 455 487 455 489 455 488 456 490 456 489 456 491 457 490 457 492 457 488 458 492 458 490 458 474 459 475 459 491 459 491 460 492 460 474 460 493 461 475 461 473 461 493 462 495 462 494 462 495 463 493 463 473 463 496 464 494 464 497 464 495 465 497 465 494 465 498 466 499 466 496 466 496 467 497 467 498 467 499 468 501 468 500 468 501 469 499 469 498 469</p>
        </triangles>
      </mesh>
    </geometry>
  </library_geometries>
  <library_visual_scenes>
    <visual_scene id="Scene" name="Scene">
      <node id="Assembly_14" name="Assembly 14" type="NODE">
        <matrix sid="transform">1 0 0 0 0 1 0 0 0 0 1 0 0 0 0 1</matrix>
        <node id="Object" name="Object" type="NODE">
          <matrix sid="transform">1 0 0 0 0 7.54979e-8 -1 0 0 1 7.54979e-8 -0.615 0 0 0 1</matrix>
          <instance_geometry url="#ID4-mesh" name="Object">
            <bind_material>
              <technique_common>
                <instance_material symbol="ID10-material" target="#ID10-material"/>
                <instance_material symbol="ID11-material" target="#ID11-material"/>
              </technique_common>
            </bind_material>
          </instance_geometry>
        </node>
        <node id="Object_001" name="Object.001" type="NODE">
          <matrix sid="transform">1 0 0 0 0 7.54979e-8 -1 0 0 1 7.54979e-8 -0.615 0 0 0 1</matrix>
          <instance_geometry url="#ID13-mesh" name="Object.001">
            <bind_material>
              <technique_common>
                <instance_material symbol="ID11-material" target="#ID11-material"/>
              </technique_common>
            </bind_material>
          </instance_geometry>
        </node>
        <node id="Object_002" name="Object.002" type="NODE">
          <matrix sid="transform">1 0 0 0 0 7.54979e-8 -1 0 0 1 7.54979e-8 -0.615 0 0 0 1</matrix>
          <instance_geometry url="#ID20-mesh" name="Object.002">
            <bind_material>
              <technique_common>
                <instance_material symbol="ID11-material" target="#ID11-material"/>
              </technique_common>
            </bind_material>
          </instance_geometry>
        </node>
      </node>
    </visual_scene>
  </library_visual_scenes>
  <scene>
    <instance_visual_scene url="#Scene"/>
  </scene>
</COLLADA>