<?xml version="1.0" encoding="utf-8"?>
<COLLADA xmlns="http://www.collada.org/2005/11/COLLADASchema" version="1.4.1" xmlns:xsi="http://www.w3.org/2001/XMLSchema-instance">
  <asset>
    <contributor>
      <author>Blender User</author>
      <authoring_tool>Blender 4.5.3 LTS commit date:2025-09-08, commit time:12:46, hash:67807e1800cc</authoring_tool>
    </contributor>
    <created>2025-09-30T03:08:54</created>
    <modified>2025-09-30T03:08:54</modified>
    <unit name="meter" meter="1"/>
    <up_axis>Z_UP</up_axis>
  </asset>
  <library_effects>
    <effect id="DefaultMaterial-effect">
      <profile_COMMON>
        <technique sid="common">
          <lambert>
            <emission>
              <color sid="emission">0 0 0 1</color>
            </emission>
            <diffuse>
              <color sid="diffuse">0.627451 0.627451 0.627451 1</color>
            </diffuse>
            <index_of_refraction>
              <float sid="ior">1.5</float>
            </index_of_refraction>
          </lambert>
        </technique>
      </profile_COMMON>
    </effect>
  </library_effects>
  <library_images/>
  <library_materials>
    <material id="DefaultMaterial-material" name="DefaultMaterial">
      <instance_effect url="#DefaultMaterial-effect"/>
    </material>
  </library_materials>
  <library_geometries>
    <geometry id="meshId0_name-mesh" name="meshId0_name">
      <mesh>
        <source id="meshId0_name-mesh-positions">
          <float_array id="meshId0_name-mesh-positions-array" count="8100">-0.5176381 -108.5681 -17 -2.020725 -107 -17 0 -108.5 -17 0 -108.5 -17 -2.020725 -107 -17 2.020727 -107 -17 0 -108.5 -17 2.020727 -107 -17 0.5176381 -108.5681 -17 0.5176381 -108.5681 -17 2.020727 -107 -17 1 -108.768 -17 1 -108.768 -17 2.020727 -107 -17 1.414214 -109.0858 -17 1.414214 -109.0858 -17 2.020727 -107 -17 1.732051 -109.5 -17 1.732051 -109.5 -17 2.020727 -107 -17 4.041452 -110.5 -17 1.732051 -109.5 -17 4.041452 -110.5 -17 1.931852 -109.9824 -17 1.931852 -109.9824 -17 4.041452 -110.5 -17 2 -110.5 -17 2 -110.5 -17 4.041452 -110.5 -17 1.931852 -111.0176 -17 1.931852 -111.0176 -17 4.041452 -110.5 -17 1.732051 -111.5 -17 1.732051 -111.5 -17 4.041452 -110.5 -17 2.020725 -114 -17 1.732051 -111.5 -17 2.020725 -114 -17 1.414214 -111.9142 -17 1.414214 -111.9142 -17 2.020725 -114 -17 1 -112.2321 -17 1 -112.2321 -17 2.020725 -114 -17 0.5176381 -112.4319 -17 0.5176381 -112.4319 -17 2.020725 -114 -17 0 -112.5 -17 0 -112.5 -17 2.020725 -114 -17 -2.020727 -114 -17 0 -112.5 -17 -2.020727 -114 -17 -0.5176381 -112.4319 -17 -0.5176381 -112.4319 -17 -2.020727 -114 -17 -1 -112.2321 -17 -1 -112.2321 -17 -2.020727 -114 -17 -1.414214 -111.9142 -17 -1.414214 -111.9142 -17 -2.020727 -114 -17 -1.732051 -111.5 -17 -1.732051 -111.5 -17 -2.020727 -114 -17 -4.041452 -110.5 -17 -1.732051 -111.5 -17 -4.041452 -110.5 -17 -1.931852 -111.0176 -17 -1.931852 -111.0176 -17 -4.041452 -110.5 -17 -2 -110.5 -17 -2 -110.5 -17 -4.041452 -110.5 -17 -1.931852 -109.9824 -17 -1.931852 -109.9824 -17 -4.041452 -110.5 -17 -1.732051 -109.5 -17 -1.732051 -109.5 -17 -4.041452 -110.5 -17 -2.020725 -107 -17 -1.732051 -109.5 -17 -2.020725 -107 -17 -1.414214 -109.0858 -17 -1.414214 -109.0858 -17 -2.020725 -107 -17 -1 -108.768 -17 -1 -108.768 -17 -2.020725 -107 -17 -0.5176381 -108.5681 -17 -2.020725 -107 -17 -4.041452 -110.5 -17 -2.020725 -107 -20 -2.020725 -107 -20 -4.041452 -110.5 -17 -4.041452 -110.5 -20 -4.041452 -110.5 -17 -2.020727 -114 -17 -4.041452 -110.5 -20 -4.041452 -110.5 -20 -2.020727 -114 -17 -2.020727 -114 -20 -2.020727 -114 -17 2.020725 -114 -17 -2.020727 -114 -20 -2.020727 -114 -20 2.020725 -114 -17 2.020725 -114 -20 20 -132.5 -20 4.041452 -110.5 -20 20 -62.5 -20 20 -62.5 -20 4.041452 -110.5 -20 2.020727 -107 -20 20 -62.5 -20 2.020727 -107 -20 -2.020725 -107 -20 4.041452 -110.5 -20 20 -132.5 -20 2.020725 -114 -20 2.020725 -114 -20 20 -132.5 -20 -20 -132.5 -20 2.020725 -114 -20 -20 -132.5 -20 -2.020727 -114 -20 -2.020727 -114 -20 -20 -132.5 -20 -4.041452 -110.5 -20 -4.041452 -110.5 -20 -20 -132.5 -20 -20 -62.5 -20 -4.041452 -110.5 -20 -20 -62.5 -20 -2.020725 -107 -20 -2.020725 -107 -20 -20 -62.5 -20 20 -62.5 -20 -20 -49.37427 -40 -20 -52.5 -37 20 -49.37427 -40 20 -49.37427 -40 -20 -52.5 -37 20 -52.5 -37 20 -52.5 -37 -20 -52.5 -37 20 -52.5 0 20 -52.5 0 -20 -52.5 -37 -20 -52.5 0 -20 -49.37427 -40 20 -49.37427 -40 -20 -38 -40 -20 -38 -40 20 -49.37427 -40 20 -38 -40 10 -25 -20 10 -5 -5 15 -25 -20 15 -25 -20 10 -5 -5 15 -5 -5 -10 -5 -5 -10 -25 -20 -15 -5 -5 -15 -5 -5 -10 -25 -20 -15 -25 -20 -15 -5 -5 -15 -25 -20 -15 -25 -5 20.88823 21.94889 -5 20.5 22 -5 25 25 -5 25 25 -5 20.5 22 -5 20.11177 21.94889 -5 25 25 -5 20.11177 21.94889 -5 19.75 21.79904 -5 19.43934 21.56066 -5 -19.43934 21.56066 -5 19.75 21.79904 -5 19.75 21.79904 -5 -19.43934 21.56066 -5 -19.75 21.79904 -5 19.75 21.79904 -5 -19.75 21.79904 -5 25 25 -5 25 25 -5 -19.75 21.79904 -5 -25 25 -5 -25 25 -5 -19.75 21.79904 -5 -20.11177 21.94889 -5 -25 25 -5 -20.11177 21.94889 -5 -20.5 22 -5 -19.43934 21.56066 -5 19.43934 21.56066 -5 -19.20096 21.25 -5 -19.20096 21.25 -5 19.43934 21.56066 -5 19.20096 21.25 -5 -19.20096 21.25 -5 19.20096 21.25 -5 -19.05111 20.88823 -5 -19.05111 20.88823 -5 19.20096 21.25 -5 19.05111 20.88823 -5 -19.05111 20.88823 -5 19.05111 20.88823 -5 -19 20.5 -5 -19 20.5 -5 19.05111 20.88823 -5 19 20.5 -5 -19 20.5 -5 19 20.5 -5 19.05111 20.11177 -5 19.20096 19.75 -5 10 -5 -5 19.05111 20.11177 -5 19.05111 20.11177 -5 10 -5 -5 -19.05111 20.11177 -5 19.05111 20.11177 -5 -19.05111 20.11177 -5 -19 20.5 -5 19.20096 19.75 -5 19.43934 19.43934 -5 10 -5 -5 10 -5 -5 19.43934 19.43934 -5 19.75 19.20096 -5 10 -5 -5 19.75 19.20096 -5 15 -5 -5 15 -5 -5 19.75 19.20096 -5 20.11177 19.05111 -5 15 -5 -5 20.11177 19.05111 -5 20.5 19 -5 20.5 19 -5 20.88823 19.05111 -5 15 -5 -5 15 -5 -5 20.88823 19.05111 -5 21.25 19.20096 -5 15 -5 -5 21.25 19.20096 -5 21.56066 19.43934 -5 21.79904 19.75 -5 21.79904 -19.75 -5 21.56066 19.43934 -5 21.56066 19.43934 -5 21.79904 -19.75 -5 21.56066 -19.43934 -5 21.56066 19.43934 -5 21.56066 -19.43934 -5 15 -5 -5 15 -5 -5 21.56066 -19.43934 -5 21.25 -19.20096 -5 15 -5 -5 21.25 -19.20096 -5 20.88823 -19.05111 -5 21.94889 20.11177 -5 25 25 -5 21.79904 19.75 -5 21.79904 19.75 -5 25 25 -5 25 -25 -5 21.79904 19.75 -5 25 -25 -5 21.79904 -19.75 -5 21.79904 -19.75 -5 25 -25 -5 21.94889 -20.11177 -5 21.94889 -20.11177 -5 25 -25 -5 22 -20.5 -5 22 -20.5 -5 25 -25 -5 21.94889 -20.88823 -5 21.94889 -20.88823 -5 25 -25 -5 21.79904 -21.25 -5 21.79904 -21.25 -5 25 -25 -5 21.56066 -21.56066 -5 21.56066 -21.56066 -5 25 -25 -5 21.25 -21.79904 -5 21.25 -21.79904 -5 25 -25 -5 20.88823 -21.94889 -5 20.88823 -21.94889 -5 25 -25 -5 20.5 -22 -5 20.5 -22 -5 25 -25 -5 15 -25 -5 20.5 -22 -5 15 -25 -5 20.11177 -21.94889 -5 20.11177 -21.94889 -5 15 -25 -5 19.75 -21.79904 -5 19.75 -21.79904 -5 15 -25 -5 19.43934 -21.56066 -5 19.43934 -21.56066 -5 15 -25 -5 19.20096 -21.25 -5 19.20096 -21.25 -5 15 -25 -5 19.05111 -20.88823 -5 19.05111 -20.88823 -5 15 -25 -5 19 -20.5 -5 19 -20.5 -5 15 -25 -5 19.05111 -20.11177 -5 19.05111 -20.11177 -5 15 -25 -5 19.20096 -19.75 -5 19.20096 -19.75 -5 15 -25 -5 15 -5 -5 19.20096 -19.75 -5 15 -5 -5 19.43934 -19.43934 -5 19.43934 -19.43934 -5 15 -5 -5 19.75 -19.20096 -5 19.75 -19.20096 -5 15 -5 -5 20.11177 -19.05111 -5 20.11177 -19.05111 -5 15 -5 -5 20.5 -19 -5 20.5 -19 -5 15 -5 -5 20.88823 -19.05111 -5 21.94889 20.11177 -5 22 20.5 -5 25 25 -5 25 25 -5 22 20.5 -5 21.94889 20.88823 -5 25 25 -5 21.94889 20.88823 -5 21.79904 21.25 -5 21.79904 21.25 -5 21.56066 21.56066 -5 25 25 -5 25 25 -5 21.56066 21.56066 -5 21.25 21.79904 -5 25 25 -5 21.25 21.79904 -5 20.88823 21.94889 -5 -20.11177 -19.05111 -5 -20.5 -19 -5 -15 -5 -5 -15 -5 -5 -20.5 -19 -5 -20.88823 -19.05111 -5 -15 -5 -5 -20.88823 -19.05111 -5 -21.25 -19.20096 -5 -21.25 -19.20096 -5 -21.56066 -19.43934 -5 -15 -5 -5 -15 -5 -5 -21.56066 -19.43934 -5 -21.56066 19.43934 -5 -15 -5 -5 -21.56066 19.43934 -5 -21.25 19.20096 -5 -21.56066 19.43934 -5 -21.56066 -19.43934 -5 -21.79904 19.75 -5 -21.79904 19.75 -5 -21.56066 -19.43934 -5 -21.79904 -19.75 -5 -21.79904 19.75 -5 -21.79904 -19.75 -5 -25 25 -5 -25 25 -5 -21.79904 -19.75 -5 -25 -25 -5 -25 -25 -5 -21.79904 -19.75 -5 -21.94889 -20.11177 -5 -25 -25 -5 -21.94889 -20.11177 -5 -22 -20.5 -5 -22 -20.5 -5 -21.94889 -20.88823 -5 -25 -25 -5 -25 -25 -5 -21.94889 -20.88823 -5 -21.79904 -21.25 -5 -25 -25 -5 -21.79904 -21.25 -5 -21.56066 -21.56066 -5 -21.56066 -21.56066 -5 -21.25 -21.79904 -5 -25 -25 -5 -25 -25 -5 -21.25 -21.79904 -5 -20.88823 -21.94889 -5 -25 -25 -5 -20.88823 -21.94889 -5 -20.5 -22 -5 -25 -25 -5 -20.5 -22 -5 -15 -25 -5 -15 -25 -5 -20.5 -22 -5 -20.11177 -21.94889 -5 -15 -25 -5 -20.11177 -21.94889 -5 -19.75 -21.79904 -5 -19.75 -21.79904 -5 -19.43934 -21.56066 -5 -15 -25 -5 -15 -25 -5 -19.43934 -21.56066 -5 -19.20096 -21.25 -5 -15 -25 -5 -19.20096 -21.25 -5 -19.05111 -20.88823 -5 -19.05111 -20.88823 -5 -19 -20.5 -5 -15 -25 -5 -15 -25 -5 -19 -20.5 -5 -19.05111 -20.11177 -5 -15 -25 -5 -19.05111 -20.11177 -5 -19.20096 -19.75 -5 -15 -25 -5 -19.20096 -19.75 -5 -15 -5 -5 -15 -5 -5 -19.20096 -19.75 -5 -19.43934 -19.43934 -5 -15 -5 -5 -19.43934 -19.43934 -5 -19.75 -19.20096 -5 -19.75 -19.20096 -5 -20.11177 -19.05111 -5 -15 -5 -5 -20.5 22 -5 -20.88823 21.94889 -5 -25 25 -5 -25 25 -5 -20.88823 21.94889 -5 -21.25 21.79904 -5 -25 25 -5 -21.25 21.79904 -5 -21.56066 21.56066 -5 -21.56066 21.56066 -5 -21.79904 21.25 -5 -25 25 -5 -25 25 -5 -21.79904 21.25 -5 -21.94889 20.88823 -5 -25 25 -5 -21.94889 20.88823 -5 -22 20.5 -5 -22 20.5 -5 -21.94889 20.11177 -5 -25 25 -5 -25 25 -5 -21.94889 20.11177 -5 -21.79904 19.75 -5 -21.25 19.20096 -5 -20.88823 19.05111 -5 -15 -5 -5 -15 -5 -5 -20.88823 19.05111 -5 -20.5 19 -5 -15 -5 -5 -20.5 19 -5 -20.11177 19.05111 -5 -20.11177 19.05111 -5 -19.75 19.20096 -5 -15 -5 -5 -15 -5 -5 -19.75 19.20096 -5 -10 -5 -5 -10 -5 -5 -19.75 19.20096 -5 -19.43934 19.43934 -5 -10 -5 -5 -19.43934 19.43934 -5 -19.20096 19.75 -5 -19.20096 19.75 -5 -19.05111 20.11177 -5 -10 -5 -5 -10 -5 -5 -19.05111 20.11177 -5 10 -5 -5 -10 -5 -5 10 -5 -5 10 -25 -5 10 -25 -5 -10 -25 -5 -10 -5 -5 10 -5 -5 10 -25 -20 10 -25 -5 15 -25 -20 15 -5 -5 15 -25 -5 -10 -25 -5 10 -25 -5 -10 -25 -20 -10 -25 -20 10 -25 -5 10 -25 -20 -10 -25 -20 10 -25 -20 -20 -25 -50 -20 -25 -50 10 -25 -20 20 -25 -50 20 -25 -50 10 -25 -20 15 -25 -20 20 -25 -50 15 -25 -20 20 -25 -10 20 -25 -10 15 -25 -20 15 -25 -5 20 -25 -10 15 -25 -5 25 -25 -5 -10 -25 -20 -20 -25 -50 -15 -25 -20 -15 -25 -20 -20 -25 -50 -20 -25 -10 -15 -25 -20 -20 -25 -10 -15 -25 -5 -15 -25 -5 -20 -25 -10 -25 -25 -5 -10 -25 -20 -10 -5 -5 -10 -25 -5 20.11177 21.94889 0 20.11177 21.94889 -5 20.5 22 0 20.5 22 0 20.11177 21.94889 -5 20.5 22 -5 20.5 22 0 20.5 22 -5 20.88823 21.94889 0 20.88823 21.94889 0 20.5 22 -5 20.88823 21.94889 -5 20.88823 21.94889 0 20.88823 21.94889 -5 21.25 21.79904 0 21.25 21.79904 0 20.88823 21.94889 -5 21.25 21.79904 -5 21.25 21.79904 0 21.25 21.79904 -5 21.56066 21.56066 0 21.56066 21.56066 0 21.25 21.79904 -5 21.56066 21.56066 -5 21.56066 21.56066 0 21.56066 21.56066 -5 21.79904 21.25 0 21.79904 21.25 0 21.56066 21.56066 -5 21.79904 21.25 -5 21.79904 21.25 0 21.79904 21.25 -5 21.94889 20.88823 0 21.94889 20.88823 0 21.79904 21.25 -5 21.94889 20.88823 -5 21.94889 20.88823 0 21.94889 20.88823 -5 22 20.5 0 22 20.5 0 21.94889 20.88823 -5 22 20.5 -5 22 20.5 0 22 20.5 -5 21.94889 20.11177 0 21.94889 20.11177 0 22 20.5 -5 21.94889 20.11177 -5 21.94889 20.11177 0 21.94889 20.11177 -5 21.79904 19.75 0 21.79904 19.75 0 21.94889 20.11177 -5 21.79904 19.75 -5 21.79904 19.75 0 21.79904 19.75 -5 21.56066 19.43934 0 21.56066 19.43934 0 21.79904 19.75 -5 21.56066 19.43934 -5 21.56066 19.43934 0 21.56066 19.43934 -5 21.25 19.20096 0 21.25 19.20096 0 21.56066 19.43934 -5 21.25 19.20096 -5 21.25 19.20096 0 21.25 19.20096 -5 20.88823 19.05111 0 20.88823 19.05111 0 21.25 19.20096 -5 20.88823 19.05111 -5 20.88823 19.05111 0 20.88823 19.05111 -5 20.5 19 0 20.5 19 0 20.88823 19.05111 -5 20.5 19 -5 20.5 19 0 20.5 19 -5 20.11177 19.05111 0 20.11177 19.05111 0 20.5 19 -5 20.11177 19.05111 -5 20.11177 19.05111 0 20.11177 19.05111 -5 19.75 19.20096 0 19.75 19.20096 0 20.11177 19.05111 -5 19.75 19.20096 -5 19.75 19.20096 0 19.75 19.20096 -5 19.43934 19.43934 0 19.43934 19.43934 0 19.75 19.20096 -5 19.43934 19.43934 -5 19.43934 19.43934 0 19.43934 19.43934 -5 19.20096 19.75 0 19.20096 19.75 0 19.43934 19.43934 -5 19.20096 19.75 -5 19.20096 19.75 0 19.20096 19.75 -5 19.05111 20.11177 0 19.05111 20.11177 0 19.20096 19.75 -5 19.05111 20.11177 -5 19.05111 20.11177 0 19.05111 20.11177 -5 19 20.5 0 19 20.5 0 19.05111 20.11177 -5 19 20.5 -5 19 20.5 0 19 20.5 -5 19.05111 20.88823 0 19.05111 20.88823 0 19 20.5 -5 19.05111 20.88823 -5 19.05111 20.88823 0 19.05111 20.88823 -5 19.20096 21.25 0 19.20096 21.25 0 19.05111 20.88823 -5 19.20096 21.25 -5 19.20096 21.25 0 19.20096 21.25 -5 19.43934 21.56066 0 19.43934 21.56066 0 19.20096 21.25 -5 19.43934 21.56066 -5 19.43934 21.56066 0 19.43934 21.56066 -5 19.75 21.79904 0 19.75 21.79904 0 19.43934 21.56066 -5 19.75 21.79904 -5 19.75 21.79904 0 19.75 21.79904 -5 20.11177 21.94889 0 20.11177 21.94889 0 19.75 21.79904 -5 20.11177 21.94889 -5 -20.88823 -19.05111 0 -20.88823 -19.05111 -5 -20.5 -19 0 -20.5 -19 0 -20.88823 -19.05111 -5 -20.5 -19 -5 -20.5 -19 0 -20.5 -19 -5 -20.11177 -19.05111 0 -20.11177 -19.05111 0 -20.5 -19 -5 -20.11177 -19.05111 -5 -20.11177 -19.05111 0 -20.11177 -19.05111 -5 -19.75 -19.20096 0 -19.75 -19.20096 0 -20.11177 -19.05111 -5 -19.75 -19.20096 -5 -19.75 -19.20096 0 -19.75 -19.20096 -5 -19.43934 -19.43934 0 -19.43934 -19.43934 0 -19.75 -19.20096 -5 -19.43934 -19.43934 -5 -19.43934 -19.43934 0 -19.43934 -19.43934 -5 -19.20096 -19.75 0 -19.20096 -19.75 0 -19.43934 -19.43934 -5 -19.20096 -19.75 -5 -19.20096 -19.75 0 -19.20096 -19.75 -5 -19.05111 -20.11177 0 -19.05111 -20.11177 0 -19.20096 -19.75 -5 -19.05111 -20.11177 -5 -19.05111 -20.11177 0 -19.05111 -20.11177 -5 -19 -20.5 0 -19 -20.5 0 -19.05111 -20.11177 -5 -19 -20.5 -5 -19 -20.5 0 -19 -20.5 -5 -19.05111 -20.88823 0 -19.05111 -20.88823 0 -19 -20.5 -5 -19.05111 -20.88823 -5 -19.05111 -20.88823 0 -19.05111 -20.88823 -5 -19.20096 -21.25 0 -19.20096 -21.25 0 -19.05111 -20.88823 -5 -19.20096 -21.25 -5 -19.20096 -21.25 0 -19.20096 -21.25 -5 -19.43934 -21.56066 0 -19.43934 -21.56066 0 -19.20096 -21.25 -5 -19.43934 -21.56066 -5 -19.43934 -21.56066 0 -19.43934 -21.56066 -5 -19.75 -21.79904 0 -19.75 -21.79904 0 -19.43934 -21.56066 -5 -19.75 -21.79904 -5 -19.75 -21.79904 0 -19.75 -21.79904 -5 -20.11177 -21.94889 0 -20.11177 -21.94889 0 -19.75 -21.79904 -5 -20.11177 -21.94889 -5 -20.11177 -21.94889 0 -20.11177 -21.94889 -5 -20.5 -22 0 -20.5 -22 0 -20.11177 -21.94889 -5 -20.5 -22 -5 -20.5 -22 0 -20.5 -22 -5 -20.88823 -21.94889 0 -20.88823 -21.94889 0 -20.5 -22 -5 -20.88823 -21.94889 -5 -20.88823 -21.94889 0 -20.88823 -21.94889 -5 -21.25 -21.79904 0 -21.25 -21.79904 0 -20.88823 -21.94889 -5 -21.25 -21.79904 -5 -21.25 -21.79904 0 -21.25 -21.79904 -5 -21.56066 -21.56066 0 -21.56066 -21.56066 0 -21.25 -21.79904 -5 -21.56066 -21.56066 -5 -21.56066 -21.56066 0 -21.56066 -21.56066 -5 -21.79904 -21.25 0 -21.79904 -21.25 0 -21.56066 -21.56066 -5 -21.79904 -21.25 -5 -21.79904 -21.25 0 -21.79904 -21.25 -5 -21.94889 -20.88823 0 -21.94889 -20.88823 0 -21.79904 -21.25 -5 -21.94889 -20.88823 -5 -21.94889 -20.88823 0 -21.94889 -20.88823 -5 -22 -20.5 0 -22 -20.5 0 -21.94889 -20.88823 -5 -22 -20.5 -5 -22 -20.5 0 -22 -20.5 -5 -21.94889 -20.11177 0 -21.94889 -20.11177 0 -22 -20.5 -5 -21.94889 -20.11177 -5 -21.94889 -20.11177 0 -21.94889 -20.11177 -5 -21.79904 -19.75 0 -21.79904 -19.75 0 -21.94889 -20.11177 -5 -21.79904 -19.75 -5 -21.79904 -19.75 0 -21.79904 -19.75 -5 -21.56066 -19.43934 0 -21.56066 -19.43934 0 -21.79904 -19.75 -5 -21.56066 -19.43934 -5 -21.56066 -19.43934 0 -21.56066 -19.43934 -5 -21.25 -19.20096 0 -21.25 -19.20096 0 -21.56066 -19.43934 -5 -21.25 -19.20096 -5 -21.25 -19.20096 0 -21.25 -19.20096 -5 -20.88823 -19.05111 0 -20.88823 -19.05111 0 -21.25 -19.20096 -5 -20.88823 -19.05111 -5 -20.88823 21.94889 0 -20.88823 21.94889 -5 -20.5 22 0 -20.5 22 0 -20.88823 21.94889 -5 -20.5 22 -5 -20.5 22 0 -20.5 22 -5 -20.11177 21.94889 0 -20.11177 21.94889 0 -20.5 22 -5 -20.11177 21.94889 -5 -20.11177 21.94889 0 -20.11177 21.94889 -5 -19.75 21.79904 0 -19.75 21.79904 0 -20.11177 21.94889 -5 -19.75 21.79904 -5 -19.75 21.79904 0 -19.75 21.79904 -5 -19.43934 21.56066 0 -19.43934 21.56066 0 -19.75 21.79904 -5 -19.43934 21.56066 -5 -19.43934 21.56066 0 -19.43934 21.56066 -5 -19.20096 21.25 0 -19.20096 21.25 0 -19.43934 21.56066 -5 -19.20096 21.25 -5 -19.20096 21.25 0 -19.20096 21.25 -5 -19.05111 20.88823 0 -19.05111 20.88823 0 -19.20096 21.25 -5 -19.05111 20.88823 -5 -19.05111 20.88823 0 -19.05111 20.88823 -5 -19 20.5 0 -19 20.5 0 -19.05111 20.88823 -5 -19 20.5 -5 -19 20.5 0 -19 20.5 -5 -19.05111 20.11177 0 -19.05111 20.11177 0 -19 20.5 -5 -19.05111 20.11177 -5 -19.05111 20.11177 0 -19.05111 20.11177 -5 -19.20096 19.75 0 -19.20096 19.75 0 -19.05111 20.11177 -5 -19.20096 19.75 -5 -19.20096 19.75 0 -19.20096 19.75 -5 -19.43934 19.43934 0 -19.43934 19.43934 0 -19.20096 19.75 -5 -19.43934 19.43934 -5 -19.43934 19.43934 0 -19.43934 19.43934 -5 -19.75 19.20096 0 -19.75 19.20096 0 -19.43934 19.43934 -5 -19.75 19.20096 -5 -19.75 19.20096 0 -19.75 19.20096 -5 -20.11177 19.05111 0 -20.11177 19.05111 0 -19.75 19.20096 -5 -20.11177 19.05111 -5 -20.11177 19.05111 0 -20.11177 19.05111 -5 -20.5 19 0 -20.5 19 0 -20.11177 19.05111 -5 -20.5 19 -5 -20.5 19 0 -20.5 19 -5 -20.88823 19.05111 0 -20.88823 19.05111 0 -20.5 19 -5 -20.88823 19.05111 -5 -20.88823 19.05111 0 -20.88823 19.05111 -5 -21.25 19.20096 0 -21.25 19.20096 0 -20.88823 19.05111 -5 -21.25 19.20096 -5 -21.25 19.20096 0 -21.25 19.20096 -5 -21.56066 19.43934 0 -21.56066 19.43934 0 -21.25 19.20096 -5 -21.56066 19.43934 -5 -21.56066 19.43934 0 -21.56066 19.43934 -5 -21.79904 19.75 0 -21.79904 19.75 0 -21.56066 19.43934 -5 -21.79904 19.75 -5 -21.79904 19.75 0 -21.79904 19.75 -5 -21.94889 20.11177 0 -21.94889 20.11177 0 -21.79904 19.75 -5 -21.94889 20.11177 -5 -21.94889 20.11177 0 -21.94889 20.11177 -5 -22 20.5 0 -22 20.5 0 -21.94889 20.11177 -5 -22 20.5 -5 -22 20.5 0 -22 20.5 -5 -21.94889 20.88823 0 -21.94889 20.88823 0 -22 20.5 -5 -21.94889 20.88823 -5 -21.94889 20.88823 0 -21.94889 20.88823 -5 -21.79904 21.25 0 -21.79904 21.25 0 -21.94889 20.88823 -5 -21.79904 21.25 -5 -21.79904 21.25 0 -21.79904 21.25 -5 -21.56066 21.56066 0 -21.56066 21.56066 0 -21.79904 21.25 -5 -21.56066 21.56066 -5 -21.56066 21.56066 0 -21.56066 21.56066 -5 -21.25 21.79904 0 -21.25 21.79904 0 -21.56066 21.56066 -5 -21.25 21.79904 -5 -21.25 21.79904 0 -21.25 21.79904 -5 -20.88823 21.94889 0 -20.88823 21.94889 0 -21.25 21.79904 -5 -20.88823 21.94889 -5 20.11177 -19.05111 0 20.11177 -19.05111 -5 20.5 -19 0 20.5 -19 0 20.11177 -19.05111 -5 20.5 -19 -5 20.5 -19 0 20.5 -19 -5 20.88823 -19.05111 0 20.88823 -19.05111 0 20.5 -19 -5 20.88823 -19.05111 -5 20.88823 -19.05111 0 20.88823 -19.05111 -5 21.25 -19.20096 0 21.25 -19.20096 0 20.88823 -19.05111 -5 21.25 -19.20096 -5 21.25 -19.20096 0 21.25 -19.20096 -5 21.56066 -19.43934 0 21.56066 -19.43934 0 21.25 -19.20096 -5 21.56066 -19.43934 -5 21.56066 -19.43934 0 21.56066 -19.43934 -5 21.79904 -19.75 0 21.79904 -19.75 0 21.56066 -19.43934 -5 21.79904 -19.75 -5 21.79904 -19.75 0 21.79904 -19.75 -5 21.94889 -20.11177 0 21.94889 -20.11177 0 21.79904 -19.75 -5 21.94889 -20.11177 -5 21.94889 -20.11177 0 21.94889 -20.11177 -5 22 -20.5 0 22 -20.5 0 21.94889 -20.11177 -5 22 -20.5 -5 22 -20.5 0 22 -20.5 -5 21.94889 -20.88823 0 21.94889 -20.88823 0 22 -20.5 -5 21.94889 -20.88823 -5 21.94889 -20.88823 0 21.94889 -20.88823 -5 21.79904 -21.25 0 21.79904 -21.25 0 21.94889 -20.88823 -5 21.79904 -21.25 -5 21.79904 -21.25 0 21.79904 -21.25 -5 21.56066 -21.56066 0 21.56066 -21.56066 0 21.79904 -21.25 -5 21.56066 -21.56066 -5 21.56066 -21.56066 0 21.56066 -21.56066 -5 21.25 -21.79904 0 21.25 -21.79904 0 21.56066 -21.56066 -5 21.25 -21.79904 -5 21.25 -21.79904 0 21.25 -21.79904 -5 20.88823 -21.94889 0 20.88823 -21.94889 0 21.25 -21.79904 -5 20.88823 -21.94889 -5 20.88823 -21.94889 0 20.88823 -21.94889 -5 20.5 -22 0 20.5 -22 0 20.88823 -21.94889 -5 20.5 -22 -5 20.5 -22 0 20.5 -22 -5 20.11177 -21.94889 0 20.11177 -21.94889 0 20.5 -22 -5 20.11177 -21.94889 -5 20.11177 -21.94889 0 20.11177 -21.94889 -5 19.75 -21.79904 0 19.75 -21.79904 0 20.11177 -21.94889 -5 19.75 -21.79904 -5 19.75 -21.79904 0 19.75 -21.79904 -5 19.43934 -21.56066 0 19.43934 -21.56066 0 19.75 -21.79904 -5 19.43934 -21.56066 -5 19.43934 -21.56066 0 19.43934 -21.56066 -5 19.20096 -21.25 0 19.20096 -21.25 0 19.43934 -21.56066 -5 19.20096 -21.25 -5 19.20096 -21.25 0 19.20096 -21.25 -5 19.05111 -20.88823 0 19.05111 -20.88823 0 19.20096 -21.25 -5 19.05111 -20.88823 -5 19.05111 -20.88823 0 19.05111 -20.88823 -5 19 -20.5 0 19 -20.5 0 19.05111 -20.88823 -5 19 -20.5 -5 19 -20.5 0 19 -20.5 -5 19.05111 -20.11177 0 19.05111 -20.11177 0 19 -20.5 -5 19.05111 -20.11177 -5 19.05111 -20.11177 0 19.05111 -20.11177 -5 19.20096 -19.75 0 19.20096 -19.75 0 19.05111 -20.11177 -5 19.20096 -19.75 -5 19.20096 -19.75 0 19.20096 -19.75 -5 19.43934 -19.43934 0 19.43934 -19.43934 0 19.20096 -19.75 -5 19.43934 -19.43934 -5 19.43934 -19.43934 0 19.43934 -19.43934 -5 19.75 -19.20096 0 19.75 -19.20096 0 19.43934 -19.43934 -5 19.75 -19.20096 -5 19.75 -19.20096 0 19.75 -19.20096 -5 20.11177 -19.05111 0 20.11177 -19.05111 0 19.75 -19.20096 -5 20.11177 -19.05111 -5 25 -30 -5 25 -30 0 24.97592 -30.49009 -5.024076 24.97592 -30.49009 -5.024076 25 -30 0 24.90393 -30.97545 0 24.97592 -30.49009 -5.024076 24.90393 -30.97545 0 24.90393 -30.97545 -5.096074 24.90393 -30.97545 -5.096074 24.90393 -30.97545 0 24.7847 -31.45142 -5.215298 24.7847 -31.45142 -5.215298 24.90393 -30.97545 0 24.6194 -31.91342 0 24.7847 -31.45142 -5.215298 24.6194 -31.91342 0 24.6194 -31.91342 -5.380602 24.6194 -31.91342 -5.380602 24.6194 -31.91342 0 24.40961 -32.35698 -5.590394 24.40961 -32.35698 -5.590394 24.6194 -31.91342 0 24.15735 -32.77785 0 24.40961 -32.35698 -5.590394 24.15735 -32.77785 0 24.15735 -32.77785 -5.842652 24.15735 -32.77785 -5.842652 24.15735 -32.77785 0 23.86505 -33.17197 -6.134948 23.86505 -33.17197 -6.134948 24.15735 -32.77785 0 23.53553 -33.53553 0 23.86505 -33.17197 -6.134948 23.53553 -33.53553 0 23.53553 -33.53553 -6.464466 23.53553 -33.53553 -6.464466 23.53553 -33.53553 0 23.17197 -33.86505 -6.828033 23.17197 -33.86505 -6.828033 23.53553 -33.53553 0 22.77785 -34.15735 0 23.17197 -33.86505 -6.828033 22.77785 -34.15735 0 22.77785 -34.15735 -7.222148 22.77785 -34.15735 -7.222148 22.77785 -34.15735 0 21.91342 -34.6194 0 22.77785 -34.15735 -7.222148 21.91342 -34.6194 0 21.91342 -34.6194 -8.086583 21.91342 -34.6194 -8.086583 21.91342 -34.6194 0 20.97545 -34.90393 0 21.91342 -34.6194 -8.086583 20.97545 -34.90393 0 20.97545 -34.90393 -9.024548 20.97545 -34.90393 -9.024548 20.97545 -34.90393 0 20 -35 0 20.97545 -34.90393 -9.024548 20 -35 0 20 -35 -10 20 -35 0 -20 -35 0 20 -35 -10 20 -35 -10 -20 -35 0 -20 -35 -10 20 -35 -10 -20 -35 -10 -20 -35 -37 -20 -35 -37 20 -35 -37 20 -35 -10 20.11177 21.94889 0 20.5 22 0 25 25 0 25 25 0 20.5 22 0 20.88823 21.94889 0 25 25 0 20.88823 21.94889 0 21.25 21.79904 0 21.25 21.79904 0 21.56066 21.56066 0 25 25 0 25 25 0 21.56066 21.56066 0 21.79904 21.25 0 25 25 0 21.79904 21.25 0 21.94889 20.88823 0 21.94889 20.88823 0 22 20.5 0 25 25 0 25 25 0 22 20.5 0 21.94889 20.11177 0 25 25 0 21.94889 20.11177 0 21.79904 19.75 0 21.56066 19.43934 0 21.56066 -19.43934 0 21.79904 19.75 0 21.79904 19.75 0 21.56066 -19.43934 0 21.79904 -19.75 0 21.79904 19.75 0 21.79904 -19.75 0 25 25 0 25 25 0 21.79904 -19.75 0 21.94889 -20.11177 0 25 25 0 21.94889 -20.11177 0 25 -30 0 25 -30 0 21.94889 -20.11177 0 22 -20.5 0 25 -30 0 22 -20.5 0 21.94889 -20.88823 0 21.56066 -19.43934 0 21.56066 19.43934 0 21.25 -19.20096 0 21.25 -19.20096 0 21.56066 19.43934 0 21.25 19.20096 0 21.25 -19.20096 0 21.25 19.20096 0 20.88823 -19.05111 0 20.88823 -19.05111 0 21.25 19.20096 0 20.88823 19.05111 0 20.88823 -19.05111 0 20.88823 19.05111 0 20.5 -19 0 20.5 -19 0 20.88823 19.05111 0 20.5 19 0 20.5 -19 0 20.5 19 0 20.11177 -19.05111 0 20.11177 -19.05111 0 20.5 19 0 20.11177 19.05111 0 20.11177 -19.05111 0 20.11177 19.05111 0 19.75 -19.20096 0 19.75 -19.20096 0 20.11177 19.05111 0 19.75 19.20096 0 19.75 -19.20096 0 19.75 19.20096 0 19.43934 -19.43934 0 19.43934 -19.43934 0 19.75 19.20096 0 19.43934 19.43934 0 19.43934 -19.43934 0 19.43934 19.43934 0 19.20096 -19.75 0 19.20096 -19.75 0 19.43934 19.43934 0 19.20096 19.75 0 19.20096 -19.75 0 19.20096 19.75 0 -19.20096 -19.75 0 -19.20096 -19.75 0 19.20096 19.75 0 -19.20096 19.75 0 -19.20096 -19.75 0 -19.20096 19.75 0 -19.43934 -19.43934 0 -19.43934 -19.43934 0 -19.20096 19.75 0 -19.43934 19.43934 0 -19.43934 -19.43934 0 -19.43934 19.43934 0 -19.75 -19.20096 0 -19.75 -19.20096 0 -19.43934 19.43934 0 -19.75 19.20096 0 -19.75 -19.20096 0 -19.75 19.20096 0 -20.11177 -19.05111 0 -20.11177 -19.05111 0 -19.75 19.20096 0 -20.11177 19.05111 0 -20.11177 -19.05111 0 -20.11177 19.05111 0 -20.5 -19 0 -20.5 -19 0 -20.11177 19.05111 0 -20.5 19 0 -20.5 -19 0 -20.5 19 0 -20.88823 -19.05111 0 -20.88823 -19.05111 0 -20.5 19 0 -20.88823 19.05111 0 -20.88823 -19.05111 0 -20.88823 19.05111 0 -21.25 -19.20096 0 -21.25 -19.20096 0 -20.88823 19.05111 0 -21.25 19.20096 0 -21.25 -19.20096 0 -21.25 19.20096 0 -21.56066 -19.43934 0 -21.56066 -19.43934 0 -21.25 19.20096 0 -21.56066 19.43934 0 -21.56066 -19.43934 0 -21.56066 19.43934 0 -21.79904 -19.75 0 -21.79904 -19.75 0 -21.56066 19.43934 0 -21.79904 19.75 0 -21.79904 -19.75 0 -21.79904 19.75 0 -25 25 0 -25 25 0 -21.79904 19.75 0 -21.94889 20.11177 0 -25 25 0 -21.94889 20.11177 0 -22 20.5 0 -19.20096 19.75 0 19.20096 19.75 0 -19.05111 20.11177 0 -19.05111 20.11177 0 19.20096 19.75 0 19.05111 20.11177 0 -19.05111 20.11177 0 19.05111 20.11177 0 -19 20.5 0 -19 20.5 0 19.05111 20.11177 0 19 20.5 0 -19 20.5 0 19 20.5 0 19.05111 20.88823 0 -19 20.5 0 19.05111 20.88823 0 -19.05111 20.88823 0 -19.05111 20.88823 0 19.05111 20.88823 0 19.20096 21.25 0 -19.05111 20.88823 0 19.20096 21.25 0 -19.20096 21.25 0 -19.20096 21.25 0 19.20096 21.25 0 19.43934 21.56066 0 -19.20096 21.25 0 19.43934 21.56066 0 -19.43934 21.56066 0 -19.43934 21.56066 0 19.43934 21.56066 0 19.75 21.79904 0 -19.43934 21.56066 0 19.75 21.79904 0 -19.75 21.79904 0 -19.75 21.79904 0 19.75 21.79904 0 25 25 0 -19.75 21.79904 0 25 25 0 -25 25 0 19.75 21.79904 0 20.11177 21.94889 0 25 25 0 -19.20096 -19.75 0 -19.05111 -20.11177 0 19.20096 -19.75 0 19.20096 -19.75 0 -19.05111 -20.11177 0 19.05111 -20.11177 0 19.05111 -20.11177 0 -19.05111 -20.11177 0 -19 -20.5 0 19.05111 -20.11177 0 -19 -20.5 0 19 -20.5 0 19 -20.5 0 -19 -20.5 0 -19.05111 -20.88823 0 19 -20.5 0 -19.05111 -20.88823 0 19.05111 -20.88823 0 19.05111 -20.88823 0 -19.05111 -20.88823 0 20 -35 0 19.05111 -20.88823 0 20 -35 0 19.20096 -21.25 0 19.20096 -21.25 0 20 -35 0 19.43934 -21.56066 0 19.43934 -21.56066 0 20 -35 0 19.75 -21.79904 0 19.75 -21.79904 0 20 -35 0 20.11177 -21.94889 0 20.11177 -21.94889 0 20 -35 0 25 -30 0 20.11177 -21.94889 0 25 -30 0 20.5 -22 0 20.5 -22 0 25 -30 0 20.88823 -21.94889 0 20.88823 -21.94889 0 25 -30 0 21.25 -21.79904 0 21.25 -21.79904 0 25 -30 0 21.56066 -21.56066 0 21.56066 -21.56066 0 25 -30 0 21.79904 -21.25 0 21.79904 -21.25 0 25 -30 0 21.94889 -20.88823 0 20 -35 0 -19.05111 -20.88823 0 -20 -35 0 -20 -35 0 -19.05111 -20.88823 0 -19.20096 -21.25 0 -20 -35 0 -19.20096 -21.25 0 -19.43934 -21.56066 0 -19.43934 -21.56066 0 -19.75 -21.79904 0 -20 -35 0 -20 -35 0 -19.75 -21.79904 0 -20.11177 -21.94889 0 -20 -35 0 -20.11177 -21.94889 0 -25 -30 0 -25 -30 0 -20.11177 -21.94889 0 -20.5 -22 0 -25 -30 0 -20.5 -22 0 -20.88823 -21.94889 0 -20.88823 -21.94889 0 -21.25 -21.79904 0 -25 -30 0 -25 -30 0 -21.25 -21.79904 0 -21.56066 -21.56066 0 -25 -30 0 -21.56066 -21.56066 0 -21.79904 -21.25 0 -21.79904 -21.25 0 -21.94889 -20.88823 0 -25 -30 0 -25 -30 0 -21.94889 -20.88823 0 -22 -20.5 0 -25 -30 0 -22 -20.5 0 -21.94889 -20.11177 0 -25 -30 0 -21.94889 -20.11177 0 -25 25 0 -25 25 0 -21.94889 -20.11177 0 -21.79904 -19.75 0 -20.88823 21.94889 0 -20.5 22 0 -25 25 0 -25 25 0 -20.5 22 0 -20.11177 21.94889 0 -25 25 0 -20.11177 21.94889 0 -19.75 21.79904 0 -22 20.5 0 -21.94889 20.88823 0 -25 25 0 -25 25 0 -21.94889 20.88823 0 -21.79904 21.25 0 -25 25 0 -21.79904 21.25 0 -21.56066 21.56066 0 -21.56066 21.56066 0 -21.25 21.79904 0 -25 25 0 -25 25 0 -21.25 21.79904 0 -20.88823 21.94889 0 20 -35 0 20.97545 -34.90393 0 25 -30 0 25 -30 0 20.97545 -34.90393 0 21.91342 -34.6194 0 25 -30 0 21.91342 -34.6194 0 22.77785 -34.15735 0 22.77785 -34.15735 0 23.53553 -33.53553 0 25 -30 0 25 -30 0 23.53553 -33.53553 0 24.15735 -32.77785 0 25 -30 0 24.15735 -32.77785 0 24.6194 -31.91342 0 24.6194 -31.91342 0 24.90393 -30.97545 0 25 -30 0 -24.90393 -30.97545 0 -24.6194 -31.91342 0 -25 -30 0 -25 -30 0 -24.6194 -31.91342 0 -24.15735 -32.77785 0 -25 -30 0 -24.15735 -32.77785 0 -23.53553 -33.53553 0 -23.53553 -33.53553 0 -22.77785 -34.15735 0 -25 -30 0 -25 -30 0 -22.77785 -34.15735 0 -21.91342 -34.6194 0 -25 -30 0 -21.91342 -34.6194 0 -20.97545 -34.90393 0 -20.97545 -34.90393 0 -20 -35 0 -25 -30 0 -20 -35 -10 -20 -35 0 -20.97545 -34.90393 -9.024549 -20.97545 -34.90393 -9.024549 -20 -35 0 -20.97545 -34.90393 0 -20.97545 -34.90393 -9.024549 -20.97545 -34.90393 0 -21.91342 -34.6194 -8.086583 -21.91342 -34.6194 -8.086583 -20.97545 -34.90393 0 -21.91342 -34.6194 0 -21.91342 -34.6194 -8.086583 -21.91342 -34.6194 0 -22.77785 -34.15735 -7.222149 -22.77785 -34.15735 -7.222149 -21.91342 -34.6194 0 -22.77785 -34.15735 0 -22.77785 -34.15735 -7.222149 -22.77785 -34.15735 0 -23.17197 -33.86505 -6.828033 -23.17197 -33.86505 -6.828033 -22.77785 -34.15735 0 -23.53553 -33.53553 0 -23.17197 -33.86505 -6.828033 -23.53553 -33.53553 0 -23.53553 -33.53553 -6.464466 -23.53553 -33.53553 -6.464466 -23.53553 -33.53553 0 -23.86505 -33.17197 -6.134948 -23.86505 -33.17197 -6.134948 -23.53553 -33.53553 0 -24.15735 -32.77785 0 -23.86505 -33.17197 -6.134948 -24.15735 -32.77785 0 -24.15735 -32.77785 -5.842652 -24.15735 -32.77785 -5.842652 -24.15735 -32.77785 0 -24.40961 -32.35698 -5.590394 -24.40961 -32.35698 -5.590394 -24.15735 -32.77785 0 -24.6194 -31.91342 0 -24.40961 -32.35698 -5.590394 -24.6194 -31.91342 0 -24.6194 -31.91342 -5.380602 -24.6194 -31.91342 -5.380602 -24.6194 -31.91342 0 -24.7847 -31.45142 -5.215298 -24.7847 -31.45142 -5.215298 -24.6194 -31.91342 0 -24.90393 -30.97545 0 -24.7847 -31.45142 -5.215298 -24.90393 -30.97545 0 -24.90393 -30.97545 -5.096074 -24.90393 -30.97545 -5.096074 -24.90393 -30.97545 0 -24.97592 -30.49009 -5.024076 -24.97592 -30.49009 -5.024076 -24.90393 -30.97545 0 -25 -30 0 -24.97592 -30.49009 -5.024076 -25 -30 0 -25 -30 -5 25 25 -5 -25 25 -5 25 25 0 25 25 0 -25 25 -5 -25 25 0 20 -30 -55 -20 -30 -55 0 -29.02455 -54.90392 0 -29.02455 -54.90392 -20 -30 -55 -20 -29.02455 -54.90392 0 -29.02455 -54.90392 -20 -29.02455 -54.90392 0 -28.08658 -54.6194 0 -28.08658 -54.6194 -20 -29.02455 -54.90392 -20 -28.08658 -54.6194 0 -28.08658 -54.6194 -20 -28.08658 -54.6194 0 -27.22215 -54.15735 0 -27.22215 -54.15735 -20 -28.08658 -54.6194 -20 -27.22215 -54.15735 0 -27.22215 -54.15735 -20 -27.22215 -54.15735 0 -26.46447 -53.53553 0 -26.46447 -53.53553 -20 -27.22215 -54.15735 -20 -26.46447 -53.53553 0 -26.46447 -53.53553 -20 -26.46447 -53.53553 0 -25.84265 -52.77785 0 -25.84265 -52.77785 -20 -26.46447 -53.53553 -20 -25.84265 -52.77785 0 -25.84265 -52.77785 -20 -25.84265 -52.77785 0 -25.3806 -51.91342 0 -25.3806 -51.91342 -20 -25.84265 -52.77785 -20 -25.3806 -51.91342 0 -25.3806 -51.91342 -20 -25.3806 -51.91342 0 -25.09607 -50.97545 0 -25.09607 -50.97545 -20 -25.3806 -51.91342 -20 -25.09607 -50.97545 0 -25.09607 -50.97545 -20 -25.09607 -50.97545 -20 -25 -50 -20 -25 -50 20 -25 -50 0 -25.09607 -50.97545 0 -25.09607 -50.97545 20 -25 -50 20 -25.09607 -50.97545 0 -25.09607 -50.97545 20 -25.09607 -50.97545 0 -25.3806 -51.91342 0 -25.3806 -51.91342 20 -25.09607 -50.97545 20 -25.3806 -51.91342 0 -25.3806 -51.91342 20 -25.3806 -51.91342 0 -25.84265 -52.77785 0 -25.84265 -52.77785 20 -25.3806 -51.91342 20 -25.84265 -52.77785 0 -25.84265 -52.77785 20 -25.84265 -52.77785 0 -26.46447 -53.53553 0 -26.46447 -53.53553 20 -25.84265 -52.77785 20 -26.46447 -53.53553 0 -26.46447 -53.53553 20 -26.46447 -53.53553 0 -27.22215 -54.15735 0 -27.22215 -54.15735 20 -26.46447 -53.53553 20 -27.22215 -54.15735 0 -27.22215 -54.15735 20 -27.22215 -54.15735 0 -28.08658 -54.6194 0 -28.08658 -54.6194 20 -27.22215 -54.15735 20 -28.08658 -54.6194 0 -28.08658 -54.6194 20 -28.08658 -54.6194 0 -29.02455 -54.90392 0 -29.02455 -54.90392 20 -28.08658 -54.6194 20 -29.02455 -54.90392 0 -29.02455 -54.90392 20 -29.02455 -54.90392 20 -30 -55 -20 -38 -40 -20 -30 -55 -20 -49.37427 -40 -20 -49.37427 -40 -20 -30 -55 -20 -57.5 -55 -20 -49.37427 -40 -20 -57.5 -55 -20 -62.5 -50 -20 -62.5 -50 -20 -57.5 -55 -20 -62.40392 -50.97545 -20 -62.40392 -50.97545 -20 -57.5 -55 -20 -62.11939 -51.91342 -20 -62.11939 -51.91342 -20 -57.5 -55 -20 -61.65735 -52.77785 -20 -61.65735 -52.77785 -20 -57.5 -55 -20 -61.03553 -53.53553 -20 -61.03553 -53.53553 -20 -57.5 -55 -20 -60.27785 -54.15735 -20 -60.27785 -54.15735 -20 -57.5 -55 -20 -59.41341 -54.6194 -20 -59.41341 -54.6194 -20 -57.5 -55 -20 -58.47545 -54.90392 -20 -30 -55 -20 -38 -40 -20 -25 -50 -20 -25 -50 -20 -38 -40 -20 -35 -37 -20 -25 -50 -20 -35 -37 -20 -25 -10 -20 -25 -10 -20 -35 -37 -20 -35 -10 -20 -25 -50 -20 -25.09607 -50.97545 -20 -30 -55 -20 -30 -55 -20 -25.09607 -50.97545 -20 -25.3806 -51.91342 -20 -30 -55 -20 -25.3806 -51.91342 -20 -25.84265 -52.77785 -20 -25.84265 -52.77785 -20 -26.46447 -53.53553 -20 -30 -55 -20 -30 -55 -20 -26.46447 -53.53553 -20 -27.22215 -54.15735 -20 -30 -55 -20 -27.22215 -54.15735 -20 -28.08658 -54.6194 -20 -28.08658 -54.6194 -20 -29.02455 -54.90392 -20 -30 -55 -20 -49.37427 -40 -20 -62.5 -50 -20 -52.5 -37 -20 -52.5 -37 -20 -62.5 -50 -20 -62.5 -20 -20 -52.5 -37 -20 -62.5 -20 -20 -52.5 0 -20 -52.5 0 -20 -62.5 -20 -20 -62.25 -12.25 -20 -52.5 0 -20 -62.25 -12.25 -20 -62.25 -4.75 -20 -132.5 -20 -20 -132.5 -12.25 -20 -62.5 -20 -20 -62.5 -20 -20 -132.5 -12.25 -20 -62.25 -12.25 -20 -132.5 -4.75 -20 -132.5 0 -20 -62.25 -4.75 -20 -62.25 -4.75 -20 -132.5 0 -20 -52.5 0 -20 -30 -55 20 -30 -55 -20 -57.5 -55 -20 -57.5 -55 20 -30 -55 20 -57.5 -55 -20 -35 -37 -20 -38 -40 20 -35 -37 20 -35 -37 -20 -38 -40 20 -38 -40 -20 -35 -10 -20.97545 -34.90393 -9.024549 -20 -25 -10 -20 -25 -10 -20.97545 -34.90393 -9.024549 -21.91342 -34.6194 -8.086583 -20 -25 -10 -21.91342 -34.6194 -8.086583 -22.77785 -34.15735 -7.222149 -22.77785 -34.15735 -7.222149 -23.17197 -33.86505 -6.828033 -20 -25 -10 -20 -25 -10 -23.17197 -33.86505 -6.828033 -23.53553 -33.53553 -6.464466 -20 -25 -10 -23.53553 -33.53553 -6.464466 -25 -30 -5 -25 -30 -5 -23.53553 -33.53553 -6.464466 -23.86505 -33.17197 -6.134948 -25 -30 -5 -23.86505 -33.17197 -6.134948 -24.15735 -32.77785 -5.842652 -24.15735 -32.77785 -5.842652 -24.40961 -32.35698 -5.590394 -25 -30 -5 -25 -30 -5 -24.40961 -32.35698 -5.590394 -24.6194 -31.91342 -5.380602 -25 -30 -5 -24.6194 -31.91342 -5.380602 -24.7847 -31.45142 -5.215298 -24.7847 -31.45142 -5.215298 -24.90393 -30.97545 -5.096074 -25 -30 -5 -25 -30 -5 -24.90393 -30.97545 -5.096074 -24.97592 -30.49009 -5.024076 -25 -30 -5 -25 -25 -5 -20 -25 -10 -25 -30 -5 -25 -30 0 -25 -25 -5 -25 -25 -5 -25 -30 0 -25 25 0 -25 -25 -5 -25 25 0 -25 25 -5 25 -30 -5 25 -25 -5 25 -30 0 25 -30 0 25 -25 -5 25 25 0 25 25 0 25 -25 -5 25 25 -5 24.97592 -30.49009 -5.024076 24.90393 -30.97545 -5.096074 25 -30 -5 25 -30 -5 24.90393 -30.97545 -5.096074 24.7847 -31.45142 -5.215298 25 -30 -5 24.7847 -31.45142 -5.215298 24.6194 -31.91342 -5.380602 24.6194 -31.91342 -5.380602 24.40961 -32.35698 -5.590394 25 -30 -5 25 -30 -5 24.40961 -32.35698 -5.590394 24.15735 -32.77785 -5.842652 25 -30 -5 24.15735 -32.77785 -5.842652 23.86505 -33.17197 -6.134948 23.86505 -33.17197 -6.134948 23.53553 -33.53553 -6.464466 25 -30 -5 25 -30 -5 23.53553 -33.53553 -6.464466 20 -25 -10 25 -30 -5 20 -25 -10 25 -25 -5 23.53553 -33.53553 -6.464466 23.17197 -33.86505 -6.828033 20 -25 -10 20 -25 -10 23.17197 -33.86505 -6.828033 22.77785 -34.15735 -7.222148 20 -25 -10 22.77785 -34.15735 -7.222148 21.91342 -34.6194 -8.086583 21.91342 -34.6194 -8.086583 20.97545 -34.90393 -9.024548 20 -25 -10 20 -25 -10 20.97545 -34.90393 -9.024548 20 -35 -10 -20 -57.5 -55 20 -57.5 -55 0 -58.47545 -54.90392 0 -58.47545 -54.90392 20 -57.5 -55 20 -58.47545 -54.90392 0 -58.47545 -54.90392 20 -58.47545 -54.90392 0 -59.41341 -54.6194 0 -59.41341 -54.6194 20 -58.47545 -54.90392 20 -59.41341 -54.6194 0 -59.41341 -54.6194 20 -59.41341 -54.6194 0 -60.27785 -54.15735 0 -60.27785 -54.15735 20 -59.41341 -54.6194 20 -60.27785 -54.15735 0 -60.27785 -54.15735 20 -60.27785 -54.15735 0 -61.03553 -53.53553 0 -61.03553 -53.53553 20 -60.27785 -54.15735 20 -61.03553 -53.53553 0 -61.03553 -53.53553 20 -61.03553 -53.53553 0 -61.65735 -52.77785 0 -61.65735 -52.77785 20 -61.03553 -53.53553 20 -61.65735 -52.77785 0 -61.65735 -52.77785 20 -61.65735 -52.77785 0 -62.11939 -51.91342 0 -62.11939 -51.91342 20 -61.65735 -52.77785 20 -62.11939 -51.91342 0 -62.11939 -51.91342 20 -62.11939 -51.91342 0 -62.40392 -50.97545 0 -62.40392 -50.97545 20 -62.11939 -51.91342 20 -62.40392 -50.97545 0 -62.40392 -50.97545 20 -62.40392 -50.97545 20 -62.5 -50 20 -62.5 -50 -20 -62.5 -50 0 -62.40392 -50.97545 0 -62.40392 -50.97545 -20 -62.5 -50 -20 -62.40392 -50.97545 0 -62.40392 -50.97545 -20 -62.40392 -50.97545 0 -62.11939 -51.91342 0 -62.11939 -51.91342 -20 -62.40392 -50.97545 -20 -62.11939 -51.91342 0 -62.11939 -51.91342 -20 -62.11939 -51.91342 0 -61.65735 -52.77785 0 -61.65735 -52.77785 -20 -62.11939 -51.91342 -20 -61.65735 -52.77785 0 -61.65735 -52.77785 -20 -61.65735 -52.77785 0 -61.03553 -53.53553 0 -61.03553 -53.53553 -20 -61.65735 -52.77785 -20 -61.03553 -53.53553 0 -61.03553 -53.53553 -20 -61.03553 -53.53553 0 -60.27785 -54.15735 0 -60.27785 -54.15735 -20 -61.03553 -53.53553 -20 -60.27785 -54.15735 0 -60.27785 -54.15735 -20 -60.27785 -54.15735 0 -59.41341 -54.6194 0 -59.41341 -54.6194 -20 -60.27785 -54.15735 -20 -59.41341 -54.6194 0 -59.41341 -54.6194 -20 -59.41341 -54.6194 0 -58.47545 -54.90392 0 -58.47545 -54.90392 -20 -59.41341 -54.6194 -20 -58.47545 -54.90392 0 -58.47545 -54.90392 -20 -58.47545 -54.90392 -20 -57.5 -55 -20 -62.5 -20 -20 -62.5 -50 20 -62.5 -20 20 -62.5 -20 -20 -62.5 -50 20 -62.5 -50 20 -49.37427 -40 20 -30 -55 20 -38 -40 20 -38 -40 20 -30 -55 20 -25 -50 20 -38 -40 20 -25 -50 20 -35 -37 20 -35 -37 20 -25 -50 20 -25 -10 20 -35 -37 20 -25 -10 20 -35 -10 20 -52.5 -37 20 -62.5 -50 20 -49.37427 -40 20 -49.37427 -40 20 -62.5 -50 20 -57.5 -55 20 -49.37427 -40 20 -57.5 -55 20 -30 -55 20 -62.5 -50 20 -52.5 -37 20 -62.5 -20 20 -62.5 -20 20 -52.5 -37 20 -52.5 0 20 -62.5 -20 20 -52.5 0 20 -62.25 -12.25 20 -62.25 -12.25 20 -52.5 0 20 -62.25 -4.75 20 -62.25 -4.75 20 -52.5 0 20 -132.5 0 20 -62.25 -4.75 20 -132.5 0 20 -132.5 -4.75 20 -62.25 -12.25 20 -132.5 -12.25 20 -62.5 -20 20 -62.5 -20 20 -132.5 -12.25 20 -132.5 -20 20 -62.5 -50 20 -62.40392 -50.97545 20 -57.5 -55 20 -57.5 -55 20 -62.40392 -50.97545 20 -62.11939 -51.91342 20 -57.5 -55 20 -62.11939 -51.91342 20 -61.65735 -52.77785 20 -61.65735 -52.77785 20 -61.03553 -53.53553 20 -57.5 -55 20 -57.5 -55 20 -61.03553 -53.53553 20 -60.27785 -54.15735 20 -57.5 -55 20 -60.27785 -54.15735 20 -59.41341 -54.6194 20 -59.41341 -54.6194 20 -58.47545 -54.90392 20 -57.5 -55 20 -29.02455 -54.90392 20 -28.08658 -54.6194 20 -30 -55 20 -30 -55 20 -28.08658 -54.6194 20 -27.22215 -54.15735 20 -30 -55 20 -27.22215 -54.15735 20 -26.46447 -53.53553 20 -26.46447 -53.53553 20 -25.84265 -52.77785 20 -30 -55 20 -30 -55 20 -25.84265 -52.77785 20 -25.3806 -51.91342 20 -30 -55 20 -25.3806 -51.91342 20 -25.09607 -50.97545 20 -25.09607 -50.97545 20 -25 -50 20 -30 -55 20 -62.25 -4.75 -20 -62.25 -4.75 20 -62.25 -12.25 20 -62.25 -12.25 -20 -62.25 -4.75 -20 -62.25 -12.25 0.5176381 -108.5681 -12.25 20 -62.25 -12.25 0 -108.5 -12.25 0 -108.5 -12.25 20 -62.25 -12.25 -20 -62.25 -12.25 0 -108.5 -12.25 -20 -62.25 -12.25 -0.5176381 -108.5681 -12.25 -0.5176381 -108.5681 -12.25 -20 -62.25 -12.25 -1 -108.768 -12.25 -1 -108.768 -12.25 -20 -62.25 -12.25 -1.414214 -109.0858 -12.25 -1.414214 -109.0858 -12.25 -20 -62.25 -12.25 -1.732051 -109.5 -12.25 -1.732051 -109.5 -12.25 -20 -62.25 -12.25 -1.931852 -109.9824 -12.25 -1.931852 -109.9824 -12.25 -20 -62.25 -12.25 -20 -132.5 -12.25 -1.931852 -109.9824 -12.25 -20 -132.5 -12.25 -2 -110.5 -12.25 -2 -110.5 -12.25 -20 -132.5 -12.25 -1.931852 -111.0176 -12.25 -1.931852 -111.0176 -12.25 -20 -132.5 -12.25 -1.732051 -111.5 -12.25 -1.732051 -111.5 -12.25 -20 -132.5 -12.25 -1.414214 -111.9142 -12.25 -1.414214 -111.9142 -12.25 -20 -132.5 -12.25 -1 -112.2321 -12.25 -1 -112.2321 -12.25 -20 -132.5 -12.25 -0.5176381 -112.4319 -12.25 -0.5176381 -112.4319 -12.25 -20 -132.5 -12.25 0 -112.5 -12.25 0 -112.5 -12.25 -20 -132.5 -12.25 20 -132.5 -12.25 0 -112.5 -12.25 20 -132.5 -12.25 0.5176381 -112.4319 -12.25 0.5176381 -112.4319 -12.25 20 -132.5 -12.25 1 -112.2321 -12.25 1 -112.2321 -12.25 20 -132.5 -12.25 1.414214 -111.9142 -12.25 1.414214 -111.9142 -12.25 20 -132.5 -12.25 1.732051 -111.5 -12.25 1.732051 -111.5 -12.25 20 -132.5 -12.25 1.931852 -111.0176 -12.25 1.931852 -111.0176 -12.25 20 -132.5 -12.25 2 -110.5 -12.25 2 -110.5 -12.25 20 -132.5 -12.25 1.931852 -109.9824 -12.25 1.931852 -109.9824 -12.25 20 -132.5 -12.25 20 -62.25 -12.25 1.931852 -109.9824 -12.25 20 -62.25 -12.25 1.732051 -109.5 -12.25 1.732051 -109.5 -12.25 20 -62.25 -12.25 1.414214 -109.0858 -12.25 1.414214 -109.0858 -12.25 20 -62.25 -12.25 1 -108.768 -12.25 1 -108.768 -12.25 20 -62.25 -12.25 0.5176381 -108.5681 -12.25 -0.5176381 -108.5681 -4.75 -20 -62.25 -4.75 0 -108.5 -4.75 0 -108.5 -4.75 -20 -62.25 -4.75 20 -62.25 -4.75 0 -108.5 -4.75 20 -62.25 -4.75 0.5176381 -108.5681 -4.75 0.5176381 -108.5681 -4.75 20 -62.25 -4.75 1 -108.768 -4.75 1 -108.768 -4.75 20 -62.25 -4.75 1.414214 -109.0858 -4.75 1.414214 -109.0858 -4.75 20 -62.25 -4.75 1.732051 -109.5 -4.75 1.732051 -109.5 -4.75 20 -62.25 -4.75 1.931852 -109.9824 -4.75 1.931852 -109.9824 -4.75 20 -62.25 -4.75 20 -132.5 -4.75 1.931852 -109.9824 -4.75 20 -132.5 -4.75 2 -110.5 -4.75 2 -110.5 -4.75 20 -132.5 -4.75 1.931852 -111.0176 -4.75 1.931852 -111.0176 -4.75 20 -132.5 -4.75 1.732051 -111.5 -4.75 1.732051 -111.5 -4.75 20 -132.5 -4.75 1.414214 -111.9142 -4.75 1.414214 -111.9142 -4.75 20 -132.5 -4.75 1 -112.2321 -4.75 1 -112.2321 -4.75 20 -132.5 -4.75 0.5176381 -112.4319 -4.75 0.5176381 -112.4319 -4.75 20 -132.5 -4.75 0 -112.5 -4.75 0 -112.5 -4.75 20 -132.5 -4.75 -20 -132.5 -4.75 0 -112.5 -4.75 -20 -132.5 -4.75 -0.5176381 -112.4319 -4.75 -0.5176381 -112.4319 -4.75 -20 -132.5 -4.75 -1 -112.2321 -4.75 -1 -112.2321 -4.75 -20 -132.5 -4.75 -1.414214 -111.9142 -4.75 -1.414214 -111.9142 -4.75 -20 -132.5 -4.75 -1.732051 -111.5 -4.75 -1.732051 -111.5 -4.75 -20 -132.5 -4.75 -1.931852 -111.0176 -4.75 -1.931852 -111.0176 -4.75 -20 -132.5 -4.75 -2 -110.5 -4.75 -2 -110.5 -4.75 -20 -132.5 -4.75 -1.931852 -109.9824 -4.75 -1.931852 -109.9824 -4.75 -20 -132.5 -4.75 -20 -62.25 -4.75 -1.931852 -109.9824 -4.75 -20 -62.25 -4.75 -1.732051 -109.5 -4.75 -1.732051 -109.5 -4.75 -20 -62.25 -4.75 -1.414214 -109.0858 -4.75 -1.414214 -109.0858 -4.75 -20 -62.25 -4.75 -1 -108.768 -4.75 -1 -108.768 -4.75 -20 -62.25 -4.75 -0.5176381 -108.5681 -4.75 20 -132.5 -4.75 20 -132.5 0 -20 -132.5 -4.75 -20 -132.5 -4.75 20 -132.5 0 -20 -132.5 0 0.5176381 -108.5681 0 20 -52.5 0 0 -108.5 0 0 -108.5 0 20 -52.5 0 -20 -52.5 0 0 -108.5 0 -20 -52.5 0 -0.5176381 -108.5681 0 -0.5176381 -108.5681 0 -20 -52.5 0 -1 -108.768 0 -1 -108.768 0 -20 -52.5 0 -1.414214 -109.0858 0 -1.414214 -109.0858 0 -20 -52.5 0 -1.732051 -109.5 0 -1.732051 -109.5 0 -20 -52.5 0 -1.931852 -109.9824 0 -1.931852 -109.9824 0 -20 -52.5 0 -20 -132.5 0 -1.931852 -109.9824 0 -20 -132.5 0 -2 -110.5 0 -2 -110.5 0 -20 -132.5 0 -1.931852 -111.0176 0 -1.931852 -111.0176 0 -20 -132.5 0 -1.732051 -111.5 0 -1.732051 -111.5 0 -20 -132.5 0 -1.414214 -111.9142 0 -1.414214 -111.9142 0 -20 -132.5 0 -1 -112.2321 0 -1 -112.2321 0 -20 -132.5 0 -0.5176381 -112.4319 0 -0.5176381 -112.4319 0 -20 -132.5 0 0 -112.5 0 0 -112.5 0 -20 -132.5 0 20 -132.5 0 0 -112.5 0 20 -132.5 0 0.5176381 -112.4319 0 0.5176381 -112.4319 0 20 -132.5 0 1 -112.2321 0 1 -112.2321 0 20 -132.5 0 1.414214 -111.9142 0 1.414214 -111.9142 0 20 -132.5 0 1.732051 -111.5 0 1.732051 -111.5 0 20 -132.5 0 1.931852 -111.0176 0 1.931852 -111.0176 0 20 -132.5 0 2 -110.5 0 2 -110.5 0 20 -132.5 0 1.931852 -109.9824 0 1.931852 -109.9824 0 20 -132.5 0 20 -52.5 0 1.931852 -109.9824 0 20 -52.5 0 1.732051 -109.5 0 1.732051 -109.5 0 20 -52.5 0 1.414214 -109.0858 0 1.414214 -109.0858 0 20 -52.5 0 1 -108.768 0 1 -108.768 0 20 -52.5 0 0.5176381 -108.5681 0 -20 -132.5 -12.25 -20 -132.5 -20 20 -132.5 -12.25 20 -132.5 -12.25 -20 -132.5 -20 20 -132.5 -20 2.020727 -107 -17 -2.020725 -107 -17 2.020727 -107 -20 2.020727 -107 -20 -2.020725 -107 -17 -2.020725 -107 -20 4.041452 -110.5 -17 2.020727 -107 -17 4.041452 -110.5 -20 4.041452 -110.5 -20 2.020727 -107 -17 2.020727 -107 -20 2.020725 -114 -17 4.041452 -110.5 -17 2.020725 -114 -20 2.020725 -114 -20 4.041452 -110.5 -17 4.041452 -110.5 -20 0.5176381 -108.5681 -17 0.5176381 -108.5681 -12.25 0 -108.5 -17 0 -108.5 -17 0.5176381 -108.5681 -12.25 0 -108.5 -12.25 0 -108.5 -17 0 -108.5 -12.25 -0.5176381 -108.5681 -17 -0.5176381 -108.5681 -17 0 -108.5 -12.25 -0.5176381 -108.5681 -12.25 -0.5176381 -108.5681 -17 -0.5176381 -108.5681 -12.25 -1 -108.768 -17 -1 -108.768 -17 -0.5176381 -108.5681 -12.25 -1 -108.768 -12.25 -1 -108.768 -17 -1 -108.768 -12.25 -1.414214 -109.0858 -17 -1.414214 -109.0858 -17 -1 -108.768 -12.25 -1.414214 -109.0858 -12.25 -1.414214 -109.0858 -17 -1.414214 -109.0858 -12.25 -1.732051 -109.5 -17 -1.732051 -109.5 -17 -1.414214 -109.0858 -12.25 -1.732051 -109.5 -12.25 -1.732051 -109.5 -17 -1.732051 -109.5 -12.25 -1.931852 -109.9824 -17 -1.931852 -109.9824 -17 -1.732051 -109.5 -12.25 -1.931852 -109.9824 -12.25 -1.931852 -109.9824 -17 -1.931852 -109.9824 -12.25 -2 -110.5 -17 -2 -110.5 -17 -1.931852 -109.9824 -12.25 -2 -110.5 -12.25 -2 -110.5 -17 -2 -110.5 -12.25 -1.931852 -111.0176 -17 -1.931852 -111.0176 -17 -2 -110.5 -12.25 -1.931852 -111.0176 -12.25 -1.931852 -111.0176 -17 -1.931852 -111.0176 -12.25 -1.732051 -111.5 -17 -1.732051 -111.5 -17 -1.931852 -111.0176 -12.25 -1.732051 -111.5 -12.25 -1.732051 -111.5 -17 -1.732051 -111.5 -12.25 -1.414214 -111.9142 -17 -1.414214 -111.9142 -17 -1.732051 -111.5 -12.25 -1.414214 -111.9142 -12.25 -1.414214 -111.9142 -17 -1.414214 -111.9142 -12.25 -1 -112.2321 -17 -1 -112.2321 -17 -1.414214 -111.9142 -12.25 -1 -112.2321 -12.25 -1 -112.2321 -17 -1 -112.2321 -12.25 -0.5176381 -112.4319 -17 -0.5176381 -112.4319 -17 -1 -112.2321 -12.25 -0.5176381 -112.4319 -12.25 -0.5176381 -112.4319 -17 -0.5176381 -112.4319 -12.25 0 -112.5 -17 0 -112.5 -17 -0.5176381 -112.4319 -12.25 0 -112.5 -12.25 0 -112.5 -17 0 -112.5 -12.25 0.5176381 -112.4319 -17 0.5176381 -112.4319 -17 0 -112.5 -12.25 0.5176381 -112.4319 -12.25 0.5176381 -112.4319 -17 0.5176381 -112.4319 -12.25 1 -112.2321 -17 1 -112.2321 -17 0.5176381 -112.4319 -12.25 1 -112.2321 -12.25 1 -112.2321 -17 1 -112.2321 -12.25 1.414214 -111.9142 -17 1.414214 -111.9142 -17 1 -112.2321 -12.25 1.414214 -111.9142 -12.25 1.414214 -111.9142 -17 1.414214 -111.9142 -12.25 1.732051 -111.5 -17 1.732051 -111.5 -17 1.414214 -111.9142 -12.25 1.732051 -111.5 -12.25 1.732051 -111.5 -17 1.732051 -111.5 -12.25 1.931852 -111.0176 -17 1.931852 -111.0176 -17 1.732051 -111.5 -12.25 1.931852 -111.0176 -12.25 1.931852 -111.0176 -17 1.931852 -111.0176 -12.25 2 -110.5 -17 2 -110.5 -17 1.931852 -111.0176 -12.25 2 -110.5 -12.25 2 -110.5 -17 2 -110.5 -12.25 1.931852 -109.9824 -17 1.931852 -109.9824 -17 2 -110.5 -12.25 1.931852 -109.9824 -12.25 1.931852 -109.9824 -17 1.931852 -109.9824 -12.25 1.732051 -109.5 -17 1.732051 -109.5 -17 1.931852 -109.9824 -12.25 1.732051 -109.5 -12.25 1.732051 -109.5 -17 1.732051 -109.5 -12.25 1.414214 -109.0858 -17 1.414214 -109.0858 -17 1.732051 -109.5 -12.25 1.414214 -109.0858 -12.25 1.414214 -109.0858 -17 1.414214 -109.0858 -12.25 1 -108.768 -17 1 -108.768 -17 1.414214 -109.0858 -12.25 1 -108.768 -12.25 1 -108.768 -17 1 -108.768 -12.25 0.5176381 -108.5681 -17 0.5176381 -108.5681 -17 1 -108.768 -12.25 0.5176381 -108.5681 -12.25 0.5176381 -108.5681 -4.75 0.5176381 -108.5681 0 0 -108.5 -4.75 0 -108.5 -4.75 0.5176381 -108.5681 0 0 -108.5 0 0 -108.5 -4.75 0 -108.5 0 -0.5176381 -108.5681 -4.75 -0.5176381 -108.5681 -4.75 0 -108.5 0 -0.5176381 -108.5681 0 -0.5176381 -108.5681 -4.75 -0.5176381 -108.5681 0 -1 -108.768 -4.75 -1 -108.768 -4.75 -0.5176381 -108.5681 0 -1 -108.768 0 -1 -108.768 -4.75 -1 -108.768 0 -1.414214 -109.0858 -4.75 -1.414214 -109.0858 -4.75 -1 -108.768 0 -1.414214 -109.0858 0 -1.414214 -109.0858 -4.75 -1.414214 -109.0858 0 -1.732051 -109.5 -4.75 -1.732051 -109.5 -4.75 -1.414214 -109.0858 0 -1.732051 -109.5 0 -1.732051 -109.5 -4.75 -1.732051 -109.5 0 -1.931852 -109.9824 -4.75 -1.931852 -109.9824 -4.75 -1.732051 -109.5 0 -1.931852 -109.9824 0 -1.931852 -109.9824 -4.75 -1.931852 -109.9824 0 -2 -110.5 -4.75 -2 -110.5 -4.75 -1.931852 -109.9824 0 -2 -110.5 0 -2 -110.5 -4.75 -2 -110.5 0 -1.931852 -111.0176 -4.75 -1.931852 -111.0176 -4.75 -2 -110.5 0 -1.931852 -111.0176 0 -1.931852 -111.0176 -4.75 -1.931852 -111.0176 0 -1.732051 -111.5 -4.75 -1.732051 -111.5 -4.75 -1.931852 -111.0176 0 -1.732051 -111.5 0 -1.732051 -111.5 -4.75 -1.732051 -111.5 0 -1.414214 -111.9142 -4.75 -1.414214 -111.9142 -4.75 -1.732051 -111.5 0 -1.414214 -111.9142 0 -1.414214 -111.9142 -4.75 -1.414214 -111.9142 0 -1 -112.2321 -4.75 -1 -112.2321 -4.75 -1.414214 -111.9142 0 -1 -112.2321 0 -1 -112.2321 -4.75 -1 -112.2321 0 -0.5176381 -112.4319 -4.75 -0.5176381 -112.4319 -4.75 -1 -112.2321 0 -0.5176381 -112.4319 0 -0.5176381 -112.4319 -4.75 -0.5176381 -112.4319 0 0 -112.5 -4.75 0 -112.5 -4.75 -0.5176381 -112.4319 0 0 -112.5 0 0 -112.5 -4.75 0 -112.5 0 0.5176381 -112.4319 -4.75 0.5176381 -112.4319 -4.75 0 -112.5 0 0.5176381 -112.4319 0 0.5176381 -112.4319 -4.75 0.5176381 -112.4319 0 1 -112.2321 -4.75 1 -112.2321 -4.75 0.5176381 -112.4319 0 1 -112.2321 0 1 -112.2321 -4.75 1 -112.2321 0 1.414214 -111.9142 -4.75 1.414214 -111.9142 -4.75 1 -112.2321 0 1.414214 -111.9142 0 1.414214 -111.9142 -4.75 1.414214 -111.9142 0 1.732051 -111.5 -4.75 1.732051 -111.5 -4.75 1.414214 -111.9142 0 1.732051 -111.5 0 1.732051 -111.5 -4.75 1.732051 -111.5 0 1.931852 -111.0176 -4.75 1.931852 -111.0176 -4.75 1.732051 -111.5 0 1.931852 -111.0176 0 1.931852 -111.0176 -4.75 1.931852 -111.0176 0 2 -110.5 -4.75 2 -110.5 -4.75 1.931852 -111.0176 0 2 -110.5 0 2 -110.5 -4.75 2 -110.5 0 1.931852 -109.9824 -4.75 1.931852 -109.9824 -4.75 2 -110.5 0 1.931852 -109.9824 0 1.931852 -109.9824 -4.75 1.931852 -109.9824 0 1.732051 -109.5 -4.75 1.732051 -109.5 -4.75 1.931852 -109.9824 0 1.732051 -109.5 0 1.732051 -109.5 -4.75 1.732051 -109.5 0 1.414214 -109.0858 -4.75 1.414214 -109.0858 -4.75 1.732051 -109.5 0 1.414214 -109.0858 0 1.414214 -109.0858 -4.75 1.414214 -109.0858 0 1 -108.768 -4.75 1 -108.768 -4.75 1.414214 -109.0858 0 1 -108.768 0 1 -108.768 -4.75 1 -108.768 0 0.5176381 -108.5681 -4.75 0.5176381 -108.5681 -4.75 1 -108.768 0 0.5176381 -108.5681 0</float_array>
          <technique_common>
            <accessor source="#meshId0_name-mesh-positions-array" count="2700" stride="3">
              <param name="X" type="float"/>
              <param name="Y" type="float"/>
              <param name="Z" type="float"/>
            </accessor>
          </technique_common>
        </source>
        <source id="meshId0_name-mesh-normals">
          <float_array id="meshId0_name-mesh-normals-array" count="1122">0 0 -1 0.8660254 -0.5000001 0 0.8660255 0.4999999 0 0.8660255 0.4999998 0 0 1 0 0 0.6924481 0.7214677 0 0.6924474 0.7214684 0 0 1 0 0.6 -0.8 -1 0 0 3.87576e-7 0 -1 -4.02947e-7 0 -1 -3.97422e-7 0 -1 4.87898e-7 0 -1 -6.32789e-7 0 -1 -3.24105e-6 0 -1 2.88124e-6 0 -1 -1.3056e-6 0 -1 9.08063e-7 0 -1 -7.40128e-7 0 -1 -9.08063e-7 0 -1 6.32789e-7 0 -1 -3.29285e-6 0 -1 3.64618e-6 0 -1 -7.91243e-7 0 -1 -6.88081e-7 0 -1 -4.22148e-7 0 -1 3.97422e-7 0 -1 -3.87576e-7 0 -1 -4.35556e-7 0 -1 1 0 0 0.1305306 -0.9914444 0 -0.1305306 -0.9914444 0 -0.3826805 -0.9238808 0 -0.6087591 -0.7933551 0 -0.6087666 -0.7933494 0 -0.7933553 -0.6087591 0 -0.7933477 -0.6087688 0 -0.9238822 -0.3826771 0 -0.9914441 -0.1305325 0 -0.9914441 0.1305325 0 -0.9238822 0.3826771 0 -0.7933477 0.6087688 0 -0.7933553 0.6087591 0 -0.6087666 0.7933494 0 -0.6087591 0.7933551 0 -0.3826846 0.9238791 0 -0.1305258 0.991445 0 0.1305258 0.991445 0 0.3826846 0.9238791 0 0.6087591 0.7933551 0 0.6087666 0.7933494 0 0.7933553 0.6087591 0 0.7933477 0.6087688 0 0.9238822 0.3826771 0 0.9238767 0.3826905 0 0.9914451 0.1305249 0 0.9914451 -0.1305249 0 0.9238767 -0.3826905 0 0.9238822 -0.3826771 0 0.7933477 -0.6087688 0 0.7933553 -0.6087591 0 0.6087666 -0.7933494 0 0.6087591 -0.7933551 0 0.3826805 -0.9238808 0 0.1305258 -0.991445 0 -0.1305258 -0.991445 0 -0.3826846 -0.9238791 0 -0.9238767 -0.3826905 0 -0.9914451 -0.1305249 0 -0.9914451 0.1305249 0 -0.9238767 0.3826905 0 -0.3826805 0.9238808 0 -0.1305306 0.9914444 0 0.1305306 0.9914444 0 0.3826805 0.9238808 0 0.9914441 0.1305325 0 0.9914441 -0.1305325 0 0.3826846 -0.9238791 0 0.9987953 -0.04907172 0 0.9951736 -0.0980131 0.004792153 0.9891769 -0.1467286 0 0.9700315 -0.2429791 0 0.9569295 -0.2902837 0.004616141 0.9415411 -0.3368985 0 0.9039918 -0.4275499 0 0.8819131 -0.4713926 0.004306793 0.8577305 -0.5140996 0 0.8032109 -0.5956948 0 0.7730027 -0.6343906 0.003924846 0.7409515 -0.6715586 0 0.6715561 -0.7409538 0 0.6343891 -0.773006 0.003525316 0.5957075 -0.8032016 0 0.471395 -0.8819222 0 0.4713963 -0.8819216 0 0.2902866 -0.9569398 0 0.2902872 -0.9569396 0 0.09801632 -0.9951848 0 0.09801667 -0.9951848 0 0 -1 0 0 0 1 0 0 1 0 0 1 0 0 1 0 0 1 0 0 1 0 0 1 0 0 1 0 0 1 0 0 1 0 0 1 0 0 1 0 0 1 0 0 1 0 0 1 0 0 1 0 0 1 0 0 1 0 0 1 0 0 1 0 0 1 0 0 1 0 0 1 0 0 1 0 0 1 0 0 1 0 0 1 0 0 1 0 0 1 0 0 1 0 0 1 0 0 1 0 0 1 0 0 1 0 0 1 0 0 1 0 0 1 0 0 1 0 0 1 0 0 1 0 0 1 0 0 1 0 0 1 0 0 1 0 0 1 0 0 1 0 0 1 0 0 1 0 0 1 0 0 1 0 0 1 0 0 1 0 0 1 0 0 1 0 0 1 0 0 1 0 0 1 0 0 1 0 0 1 0 0 1 0 0 1 0 0 1 0 0 1 0 0 1 0 0 1 0 0 1 0 0 1 0 0 1 0 0 1 0 0 1 0 0 1 0 0 1 0 0 1 0 0 1 0 0 1 0 0 1 0 0 1 0 0 1 0 0 1 0 0 1 0 0 1 0 0 1 0 0 1 0 0 1 0 0 1 0 0 1 0 0 1 0 0 1 0 0 1 0 0 1 0 0 1 0 0 1 0 0 1 0 0 1 0 0 1 0 0 1 0 0 1 0 0 1 0 0 1 0 0 1 0 0 1 0 0 1 0 0 1 0 0 1 0 0 1 0 0 1 0 0 1 0 0 1 0 0 1 0 0 1 0 0 1 0 0 1 0 0 1 0 0 1 0 0 1 0 0 1 0 0 1 0 0 1 0 0 1 0 0 1 0 0 1 0 0 1 -0.09801638 -0.9951849 0 -0.09801667 -0.9951848 0 -0.2902872 -0.9569396 0 -0.2902866 -0.9569398 0 -0.4713946 -0.8819224 0 -0.471395 -0.8819222 0 -0.5957075 -0.8032016 0 -0.6343891 -0.773006 0.003525316 -0.6715561 -0.7409538 0 -0.7409515 -0.6715586 0 -0.7730027 -0.6343906 0.003924846 -0.8032109 -0.5956948 0 -0.8577305 -0.5140996 0 -0.8819131 -0.4713926 0.004306793 -0.9039918 -0.4275499 0 -0.9415411 -0.3368985 0 -0.9569295 -0.2902837 0.004616141 -0.9700315 -0.2429791 0 -0.9891769 -0.1467286 0 -0.9951736 -0.0980131 0.004792153 -0.9987953 -0.04907172 0 0 0.09801989 -0.9951846 0 0.09802055 -0.9951845 0 0.2902834 -0.9569408 0 0.4713948 -0.8819224 0 0.4713973 -0.8819209 0 0.6343952 -0.773009 0 0.773009 -0.6343951 0 0.8819217 -0.471396 0 0.8819204 -0.4713985 0 0.9569415 -0.2902808 0 0.9569389 -0.2902894 0 0.995185 -0.09801584 -1 0 0 0 -0.7071068 0.7071068 -0.707107 0 -0.7071067 -0.7071068 0 -0.7071068 -0.7071063 5.86429e-7 -0.7071073 -0.7071092 0 -0.7071043 -0.707107 2.21188e-6 -0.7071066 -0.7071066 -6.47376e-7 -0.707107 -0.7070986 7.46201e-6 -0.7071151 -0.7071117 1.40533e-6 -0.7071019 -0.7071049 0 -0.7071087 -0.7071141 0 -0.7070996 -0.7070996 0 -0.7071141 -0.7071092 0 -0.7071044 0.7070997 0 -0.707114 0.7071092 0 -0.7071044 0.7070996 0 -0.7071141 0.7071155 0 -0.7070981 0.7071029 -1.94847e-6 -0.7071107 0.7071117 1.40533e-6 -0.7071019 0.7070983 8.52799e-6 -0.7071153 0.7071068 -4.31584e-7 -0.7071068 0.7071068 0 -0.7071068 0.7071068 2.52786e-6 -0.7071068 0.7071089 -3.05066e-7 -0.7071048 0.7071063 2.93214e-7 -0.7071073 0.707107 -2.81946e-7 -0.7071067 0.7071068 0 -0.7071068 0 -0.09802055 -0.9951845 0 -0.2902834 -0.9569408 0 -0.4713922 -0.8819237 0 -0.4713973 -0.8819209 0 -0.6343982 -0.7730064 0 -0.773003 -0.6344025 0 -0.773009 -0.6343951 0 -0.8819217 -0.471396 0 -0.8819268 -0.4713863 0 -0.9569389 -0.2902894 0 -0.9951853 -0.09801274 0 -0.995184 -0.09802508 1 0 0 -2.1142e-6 0 1 2.1142e-6 0 1 0 0 1 0 0 1 0 0 1 0 0 1 0 0 1 0 0 1 0 0 1 0 0 1 0 0 1 0 0 1 0 0 1 0 0 1 0 0 1 0 0 1 0 0 1 0 0 1 0 0 1 0 0 1 0 0 1 0 0 1 0 0 1 0 0 1 0 0 1 0 0 1 0 0 1 0 0 1 0 0 1 0 0 1 -0.8660255 -0.4999999 0 -0.8660255 -0.4999998 0 -0.8660254 0.5000001 0 -0.1305069 -0.9914474 0 0.1305069 -0.9914474 0 0.3827047 -0.9238708 0 0.3827046 -0.9238708 0 0.6087562 -0.7933575 0 0.6087564 -0.7933573 0 0.7933545 -0.6087599 0 0.7933543 -0.6087602 0 0.9238795 -0.3826838 0 0.9238792 -0.3826844 0 0.991445 -0.1305255 0 0.9914448 -0.1305263 0 0.9914447 0.1305282 0 0.9914447 0.1305274 0 0.9238814 0.3826793 0 0.9238815 0.3826786 0 0.7933543 0.6087602 0 0.7933545 0.6087599 0 0.6087564 0.7933573 0 0.6087562 0.7933575 0 0.3826922 0.923876 0 0.3826922 0.9238759 0 0.1305213 0.9914456 0 -0.1305213 0.9914456 0 -0.3826922 0.9238759 0 -0.3826922 0.923876 0 -0.6087562 0.7933575 0 -0.6087564 0.7933573 0 -0.7933545 0.6087599 0 -0.7933543 0.6087602 0 -0.9238815 0.3826786 0 -0.9238814 0.3826793 0 -0.9914447 0.1305274 0 -0.9914447 0.1305282 0 -0.9914448 -0.1305263 0 -0.991445 -0.1305255 0 -0.9238792 -0.3826844 0 -0.9238795 -0.3826838 0 -0.7933543 -0.6087602 0 -0.7933545 -0.6087599 0 -0.6087564 -0.7933573 0 -0.6087562 -0.7933575 0 -0.3827046 -0.9238708 0 -0.3827047 -0.9238708 0</float_array>
          <technique_common>
            <accessor source="#meshId0_name-mesh-normals-array" count="374" stride="3">
              <param name="X" type="float"/>
              <param name="Y" type="float"/>
              <param name="Z" type="float"/>
            </accessor>
          </technique_common>
        </source>
        <vertices id="meshId0_name-mesh-vertices">
          <input semantic="POSITION" source="#meshId0_name-mesh-positions"/>
        </vertices>
        <triangles material="DefaultMaterial-material" count="900">
          <input semantic="VERTEX" source="#meshId0_name-mesh-vertices" offset="0"/>
          <input semantic="NORMAL" source="#meshId0_name-mesh-normals" offset="1"/>
          <p>0 0 1 0 2 0 3 0 4 0 5 0 6 0 7 0 8 0 9 0 10 0 11 0 12 0 13 0 14 0 15 0 16 0 17 0 18 0 19 0 20 0 21 0 22 0 23 0 24 0 25 0 26 0 27 0 28 0 29 0 30 0 31 0 32 0 33 0 34 0 35 0 36 0 37 0 38 0 39 0 40 0 41 0 42 0 43 0 44 0 45 0 46 0 47 0 48 0 49 0 50 0 51 0 52 0 53 0 54 0 55 0 56 0 57 0 58 0 59 0 60 0 61 0 62 0 63 0 64 0 65 0 66 0 67 0 68 0 69 0 70 0 71 0 72 0 73 0 74 0 75 0 76 0 77 0 78 0 79 0 80 0 81 0 82 0 83 0 84 0 85 0 86 0 87 0 88 0 89 0 90 1 91 1 92 1 93 1 94 1 95 1 96 2 97 2 98 2 99 3 100 3 101 3 102 4 103 4 104 4 105 4 106 4 107 4 108 0 109 0 110 0 111 0 112 0 113 0 114 0 115 0 116 0 117 0 118 0 119 0 120 0 121 0 122 0 123 0 124 0 125 0 126 0 127 0 128 0 129 0 130 0 131 0 132 0 133 0 134 0 135 0 136 0 137 0 138 5 139 5 140 5 141 6 142 6 143 6 144 4 145 4 146 4 147 4 148 4 149 4 150 7 151 7 152 7 153 7 154 7 155 7 156 8 157 8 158 8 159 8 160 8 161 8 162 8 163 8 164 8 165 8 166 8 167 8 168 9 169 9 170 9 171 0 172 0 173 0 174 0 175 0 176 0 177 0 178 0 179 0 180 0 181 0 182 0 183 0 184 0 185 0 186 0 187 0 188 0 189 0 190 0 191 0 192 0 193 0 194 0 195 0 196 0 197 0 198 0 199 0 200 0 201 0 202 0 203 0 204 0 205 0 206 0 207 0 208 0 209 0 210 0 211 0 212 0 213 0 214 0 215 0 216 0 217 0 218 0 219 0 220 0 221 0 222 0 223 0 224 0 225 0 226 0 227 0 228 0 229 0 230 0 231 10 232 10 233 10 234 0 235 0 236 0 237 11 238 11 239 11 240 12 241 12 242 12 243 0 244 0 245 0 246 13 247 13 248 13 249 14 250 14 251 14 252 15 253 15 254 15 255 16 256 16 257 16 258 0 259 0 260 0 261 17 262 17 263 17 264 18 265 18 266 18 267 0 268 0 269 0 270 0 271 0 272 0 273 0 274 0 275 0 276 0 277 0 278 0 279 0 280 0 281 0 282 0 283 0 284 0 285 0 286 0 287 0 288 0 289 0 290 0 291 0 292 0 293 0 294 0 295 0 296 0 297 0 298 0 299 0 300 0 301 0 302 0 303 0 304 0 305 0 306 0 307 0 308 0 309 0 310 0 311 0 312 0 313 0 314 0 315 0 316 0 317 0 318 0 319 0 320 0 321 0 322 0 323 0 324 0 325 0 326 0 327 0 328 0 329 0 330 0 331 0 332 0 333 0 334 0 335 0 336 0 337 0 338 0 339 0 340 0 341 0 342 0 343 0 344 0 345 0 346 0 347 0 348 0 349 0 350 0 351 0 352 0 353 0 354 0 355 0 356 0 357 0 358 0 359 0 360 0 361 0 362 0 363 0 364 0 365 0 366 19 367 19 368 19 369 20 370 20 371 20 372 0 373 0 374 0 375 0 376 0 377 0 378 21 379 21 380 21 381 22 382 22 383 22 384 23 385 23 386 23 387 0 388 0 389 0 390 0 391 0 392 0 393 0 394 0 395 0 396 0 397 0 398 0 399 0 400 0 401 0 402 0 403 0 404 0 405 0 406 0 407 0 408 0 409 0 410 0 411 0 412 0 413 0 414 0 415 0 416 0 417 0 418 0 419 0 420 0 421 0 422 0 423 0 424 0 425 0 426 0 427 0 428 0 429 0 430 0 431 0 432 0 433 0 434 0 435 0 436 0 437 0 438 0 439 0 440 0 441 0 442 0 443 0 444 0 445 0 446 0 447 24 448 24 449 24 450 25 451 25 452 25 453 0 454 0 455 0 456 0 457 0 458 0 459 0 460 0 461 0 462 0 463 0 464 0 465 0 466 0 467 0 468 0 469 0 470 0 471 0 472 0 473 0 474 0 475 0 476 0 477 0 478 0 479 0 480 0 481 0 482 0 483 26 484 26 485 26 486 27 487 27 488 27 489 0 490 0 491 0 492 0 493 0 494 0 495 28 496 28 497 28 498 29 499 29 500 29 501 0 502 0 503 0 504 0 505 0 506 0 507 0 508 0 509 0 510 0 511 0 512 0 513 9 514 9 515 9 516 30 517 30 518 30 519 4 520 4 521 4 522 4 523 4 524 4 525 4 526 4 527 4 528 4 529 4 530 4 531 4 532 4 533 4 534 4 535 4 536 4 537 4 538 4 539 4 540 4 541 4 542 4 543 4 544 4 545 4 546 4 547 4 548 4 549 4 550 4 551 4 552 4 553 4 554 4 555 30 556 30 557 30 558 31 559 31 560 31 561 31 562 31 563 31 564 32 565 32 566 32 567 32 568 32 569 32 570 33 571 33 572 33 573 33 574 33 575 33 576 34 577 34 578 34 579 35 580 35 581 35 582 36 583 36 584 36 585 37 586 37 587 37 588 38 589 38 590 38 591 38 592 38 593 38 594 39 595 39 596 39 597 39 598 39 599 39 600 40 601 40 602 40 603 40 604 40 605 40 606 41 607 41 608 41 609 41 610 41 611 41 612 42 613 42 614 42 615 43 616 43 617 43 618 44 619 44 620 44 621 45 622 45 623 45 624 46 625 46 626 46 627 46 628 46 629 46 630 47 631 47 632 47 633 47 634 47 635 47 636 48 637 48 638 48 639 48 640 48 641 48 642 49 643 49 644 49 645 49 646 49 647 49 648 50 649 50 650 50 651 51 652 51 653 51 654 52 655 52 656 52 657 53 658 53 659 53 660 54 661 54 662 54 663 55 664 55 665 55 666 56 667 56 668 56 669 56 670 56 671 56 672 57 673 57 674 57 675 57 676 57 677 57 678 58 679 58 680 58 681 59 682 59 683 59 684 60 685 60 686 60 687 61 688 61 689 61 690 62 691 62 692 62 693 63 694 63 695 63 696 64 697 64 698 64 699 64 700 64 701 64 702 65 703 65 704 65 705 65 706 65 707 65 708 66 709 66 710 66 711 66 712 66 713 66 714 67 715 67 716 67 717 67 718 67 719 67 720 34 721 34 722 34 723 35 724 35 725 35 726 36 727 36 728 36 729 37 730 37 731 37 732 38 733 38 734 38 735 68 736 68 737 68 738 69 739 69 740 69 741 69 742 69 743 69 744 70 745 70 746 70 747 70 748 70 749 70 750 71 751 71 752 71 753 41 754 41 755 41 756 42 757 42 758 42 759 43 760 43 761 43 762 44 763 44 764 44 765 45 766 45 767 45 768 72 769 72 770 72 771 72 772 72 773 72 774 73 775 73 776 73 777 73 778 73 779 73 780 74 781 74 782 74 783 74 784 74 785 74 786 75 787 75 788 75 789 75 790 75 791 75 792 50 793 50 794 50 795 51 796 51 797 51 798 52 799 52 800 52 801 53 802 53 803 53 804 54 805 54 806 54 807 54 808 54 809 54 810 76 811 76 812 76 813 76 814 76 815 76 816 77 817 77 818 77 819 77 820 77 821 77 822 59 823 59 824 59 825 59 826 59 827 59 828 60 829 60 830 60 831 61 832 61 833 61 834 62 835 62 836 62 837 63 838 63 839 63 840 78 841 78 842 78 843 78 844 78 845 78 846 31 847 31 848 31 849 31 850 31 851 31 852 32 853 32 854 32 855 32 856 32 857 32 858 33 859 33 860 33 861 33 862 33 863 33 864 34 865 34 866 34 867 35 868 35 869 35 870 36 871 36 872 36 873 37 874 37 875 37 876 38 877 38 878 38 879 68 880 68 881 68 882 69 883 69 884 69 885 69 886 69 887 69 888 70 889 70 890 70 891 70 892 70 893 70 894 71 895 71 896 71 897 41 898 41 899 41 900 42 901 42 902 42 903 43 904 43 905 43 906 44 907 44 908 44 909 45 910 45 911 45 912 46 913 46 914 46 915 46 916 46 917 46 918 47 919 47 920 47 921 47 922 47 923 47 924 48 925 48 926 48 927 48 928 48 929 48 930 49 931 49 932 49 933 49 934 49 935 49 936 50 937 50 938 50 939 51 940 51 941 51 942 52 943 52 944 52 945 53 946 53 947 53 948 54 949 54 950 54 951 54 952 54 953 54 954 76 955 76 956 76 957 76 958 76 959 76 960 77 961 77 962 77 963 77 964 77 965 77 966 59 967 59 968 59 969 59 970 59 971 59 972 60 973 60 974 60 975 61 976 61 977 61 978 62 979 62 980 62 981 63 982 63 983 63 984 64 985 64 986 64 987 64 988 64 989 64 990 65 991 65 992 65 993 65 994 65 995 65 996 66 997 66 998 66 999 66 1000 66 1001 66 1002 67 1003 67 1004 67 1005 67 1006 67 1007 67 1008 34 1009 34 1010 34 1011 35 1012 35 1013 35 1014 36 1015 36 1016 36 1017 37 1018 37 1019 37 1020 38 1021 38 1022 38 1023 38 1024 38 1025 38 1026 39 1027 39 1028 39 1029 39 1030 39 1031 39 1032 40 1033 40 1034 40 1035 40 1036 40 1037 40 1038 41 1039 41 1040 41 1041 41 1042 41 1043 41 1044 42 1045 42 1046 42 1047 43 1048 43 1049 43 1050 44 1051 44 1052 44 1053 45 1054 45 1055 45 1056 72 1057 72 1058 72 1059 72 1060 72 1061 72 1062 73 1063 73 1064 73 1065 73 1066 73 1067 73 1068 74 1069 74 1070 74 1071 74 1072 74 1073 74 1074 75 1075 75 1076 75 1077 75 1078 75 1079 75 1080 50 1081 50 1082 50 1083 51 1084 51 1085 51 1086 52 1087 52 1088 52 1089 53 1090 53 1091 53 1092 54 1093 54 1094 54 1095 55 1096 55 1097 55 1098 56 1099 56 1100 56 1101 56 1102 56 1103 56 1104 57 1105 57 1106 57 1107 57 1108 57 1109 57 1110 58 1111 58 1112 58 1113 59 1114 59 1115 59 1116 60 1117 60 1118 60 1119 61 1120 61 1121 61 1122 62 1123 62 1124 62 1125 63 1126 63 1127 63 1128 78 1129 78 1130 78 1131 78 1132 78 1133 78 1134 79 1135 79 1136 79 1137 80 1138 80 1139 80 1140 81 1141 81 1142 81 1143 82 1144 82 1145 82 1146 83 1147 83 1148 83 1149 84 1150 84 1151 84 1152 85 1153 85 1154 85 1155 86 1156 86 1157 86 1158 87 1159 87 1160 87 1161 88 1162 88 1163 88 1164 89 1165 89 1166 89 1167 90 1168 90 1169 90 1170 91 1171 91 1172 91 1173 92 1174 92 1175 92 1176 93 1177 93 1178 93 1179 94 1180 94 1181 94 1182 95 1183 95 1184 95 1185 96 1186 96 1187 96 1188 97 1189 97 1190 97 1191 98 1192 98 1193 98 1194 99 1195 99 1196 99 1197 100 1198 100 1199 100 1200 100 1201 100 1202 100 1203 100 1204 100 1205 100 1206 100 1207 100 1208 100 1209 101 1210 101 1211 101 1212 102 1213 102 1214 102 1215 103 1216 103 1217 103 1218 104 1219 104 1220 104 1221 105 1222 105 1223 105 1224 106 1225 106 1226 106 1227 107 1228 107 1229 107 1230 108 1231 108 1232 108 1233 109 1234 109 1235 109 1236 110 1237 110 1238 110 1239 111 1240 111 1241 111 1242 112 1243 112 1244 112 1245 113 1246 113 1247 113 1248 114 1249 114 1250 114 1251 115 1252 115 1253 115 1254 116 1255 116 1256 116 1257 117 1258 117 1259 117 1260 118 1261 118 1262 118 1263 119 1264 119 1265 119 1266 120 1267 120 1268 120 1269 121 1270 121 1271 121 1272 122 1273 122 1274 122 1275 123 1276 123 1277 123 1278 124 1279 124 1280 124 1281 125 1282 125 1283 125 1284 126 1285 126 1286 126 1287 127 1288 127 1289 127 1290 128 1291 128 1292 128 1293 129 1294 129 1295 129 1296 130 1297 130 1298 130 1299 131 1300 131 1301 131 1302 132 1303 132 1304 132 1305 133 1306 133 1307 133 1308 134 1309 134 1310 134 1311 135 1312 135 1313 135 1314 136 1315 136 1316 136 1317 137 1318 137 1319 137 1320 138 1321 138 1322 138 1323 139 1324 139 1325 139 1326 140 1327 140 1328 140 1329 141 1330 141 1331 141 1332 142 1333 142 1334 142 1335 143 1336 143 1337 143 1338 144 1339 144 1340 144 1341 145 1342 145 1343 145 1344 146 1345 146 1346 146 1347 147 1348 147 1349 147 1350 148 1351 148 1352 148 1353 149 1354 149 1355 149 1356 150 1357 150 1358 150 1359 151 1360 151 1361 151 1362 152 1363 152 1364 152 1365 153 1366 153 1367 153 1368 154 1369 154 1370 154 1371 155 1372 155 1373 155 1374 156 1375 156 1376 156 1377 157 1378 157 1379 157 1380 158 1381 158 1382 158 1383 159 1384 159 1385 159 1386 160 1387 160 1388 160 1389 161 1390 161 1391 161 1392 162 1393 162 1394 162 1395 163 1396 163 1397 163 1398 164 1399 164 1400 164 1401 165 1402 165 1403 165 1404 166 1405 166 1406 166 1407 167 1408 167 1409 167 1410 168 1411 168 1412 168 1413 169 1414 169 1415 169 1416 170 1417 170 1418 170 1419 171 1420 171 1421 171 1422 172 1423 172 1424 172 1425 173 1426 173 1427 173 1428 174 1429 174 1430 174 1431 175 1432 175 1433 175 1434 176 1435 176 1436 176 1437 177 1438 177 1439 177 1440 178 1441 178 1442 178 1443 179 1444 179 1445 179 1446 180 1447 180 1448 180 1449 181 1450 181 1451 181 1452 182 1453 182 1454 182 1455 183 1456 183 1457 183 1458 184 1459 184 1460 184 1461 185 1462 185 1463 185 1464 186 1465 186 1466 186 1467 187 1468 187 1469 187 1470 188 1471 188 1472 188 1473 189 1474 189 1475 189 1476 190 1477 190 1478 190 1479 191 1480 191 1481 191 1482 192 1483 192 1484 192 1485 193 1486 193 1487 193 1488 194 1489 194 1490 194 1491 195 1492 195 1493 195 1494 196 1495 196 1496 196 1497 197 1498 197 1499 197 1500 198 1501 198 1502 198 1503 199 1504 199 1505 199 1506 200 1507 200 1508 200 1509 201 1510 201 1511 201 1512 202 1513 202 1514 202 1515 203 1516 203 1517 203 1518 204 1519 204 1520 204 1521 205 1522 205 1523 205 1524 206 1525 206 1526 206 1527 207 1528 207 1529 207 1530 208 1531 208 1532 208 1533 209 1534 209 1535 209 1536 210 1537 210 1538 210 1539 211 1540 211 1541 211 1542 212 1543 212 1544 212 1545 213 1546 213 1547 213 1548 214 1549 214 1550 214 1551 215 1552 215 1553 215 1554 216 1555 216 1556 216 1557 217 1558 217 1559 217 1560 218 1561 218 1562 218 1563 219 1564 219 1565 219 1566 220 1567 220 1568 220 1569 221 1570 221 1571 221 1572 222 1573 222 1574 222 1575 223 1576 223 1577 223 1578 224 1579 224 1580 224 1581 225 1582 225 1583 225 1584 226 1585 226 1586 226 1587 227 1588 227 1589 227 1590 228 1591 228 1592 228 1593 229 1594 229 1595 229 1596 230 1597 230 1598 230 1599 231 1600 231 1601 231 1602 232 1603 232 1604 232 1605 233 1606 233 1607 233 1608 234 1609 234 1610 234 1611 235 1612 235 1613 235 1614 236 1615 236 1616 236 1617 237 1618 237 1619 237 1620 238 1621 238 1622 238 1623 239 1624 239 1625 239 1626 240 1627 240 1628 240 1629 241 1630 241 1631 241 1632 242 1633 242 1634 242 1635 243 1636 243 1637 243 1638 4 1639 4 1640 4 1641 4 1642 4 1643 4 1644 244 1645 244 1646 244 1647 245 1648 245 1649 245 1650 246 1651 246 1652 246 1653 246 1654 246 1655 246 1656 247 1657 247 1658 247 1659 248 1660 248 1661 248 1662 249 1663 249 1664 249 1665 249 1666 249 1667 249 1668 250 1669 250 1670 250 1671 250 1672 250 1673 250 1674 251 1675 251 1676 251 1677 252 1678 252 1679 252 1680 253 1681 253 1682 253 1683 254 1684 254 1685 254 1686 255 1687 255 1688 255 1689 255 1690 255 1691 255 1692 255 1693 255 1694 255 1695 254 1696 254 1697 254 1698 253 1699 253 1700 253 1701 252 1702 252 1703 252 1704 251 1705 251 1706 251 1707 250 1708 250 1709 250 1710 250 1711 250 1712 250 1713 249 1714 249 1715 249 1716 249 1717 249 1718 249 1719 248 1720 248 1721 248 1722 247 1723 247 1724 247 1725 246 1726 246 1727 246 1728 246 1729 246 1730 246 1731 245 1732 245 1733 245 1734 9 1735 9 1736 9 1737 9 1738 9 1739 9 1740 9 1741 9 1742 9 1743 9 1744 9 1745 9 1746 9 1747 9 1748 9 1749 9 1750 9 1751 9 1752 9 1753 9 1754 9 1755 9 1756 9 1757 9 1758 9 1759 9 1760 9 1761 9 1762 9 1763 9 1764 9 1765 9 1766 9 1767 9 1768 9 1769 9 1770 9 1771 9 1772 9 1773 9 1774 9 1775 9 1776 9 1777 9 1778 9 1779 9 1780 9 1781 9 1782 9 1783 9 1784 9 1785 9 1786 9 1787 9 1788 9 1789 9 1790 9 1791 9 1792 9 1793 9 1794 9 1795 9 1796 9 1797 9 1798 9 1799 9 1800 9 1801 9 1802 9 1803 9 1804 9 1805 9 1806 9 1807 9 1808 9 1809 9 1810 9 1811 9 1812 9 1813 9 1814 9 1815 9 1816 9 1817 9 1818 9 1819 9 1820 9 1821 256 1822 256 1823 256 1824 0 1825 0 1826 0 1827 0 1828 0 1829 0 1830 257 1831 257 1832 257 1833 257 1834 257 1835 257 1836 258 1837 258 1838 258 1839 259 1840 259 1841 259 1842 260 1843 260 1844 260 1845 261 1846 261 1847 261 1848 262 1849 262 1850 262 1851 263 1852 263 1853 263 1854 264 1855 264 1856 264 1857 265 1858 265 1859 265 1860 266 1861 266 1862 266 1863 267 1864 267 1865 267 1866 268 1867 268 1868 268 1869 269 1870 269 1871 269 1872 259 1873 259 1874 259 1875 259 1876 259 1877 259 1878 9 1879 9 1880 9 1881 9 1882 9 1883 9 1884 9 1885 9 1886 9 1887 30 1888 30 1889 30 1890 30 1891 30 1892 30 1893 30 1894 30 1895 30 1896 270 1897 270 1898 270 1899 271 1900 271 1901 271 1902 272 1903 272 1904 272 1905 273 1906 273 1907 273 1908 274 1909 274 1910 274 1911 275 1912 275 1913 275 1914 276 1915 276 1916 276 1917 277 1918 277 1919 277 1920 278 1921 278 1922 278 1923 279 1924 279 1925 279 1926 280 1927 280 1928 280 1929 281 1930 281 1931 281 1932 282 1933 282 1934 282 1935 283 1936 283 1937 283 1938 284 1939 284 1940 284 1941 284 1942 284 1943 284 1944 285 1945 285 1946 285 1947 285 1948 285 1949 285 1950 286 1951 286 1952 286 1953 287 1954 287 1955 287 1956 288 1957 288 1958 288 1959 288 1960 288 1961 288 1962 289 1963 289 1964 289 1965 290 1966 290 1967 290 1968 291 1969 291 1970 291 1971 292 1972 292 1973 292 1974 293 1975 293 1976 293 1977 293 1978 293 1979 293 1980 294 1981 294 1982 294 1983 295 1984 295 1985 295 1986 294 1987 294 1988 294 1989 293 1990 293 1991 293 1992 293 1993 293 1994 293 1995 292 1996 292 1997 292 1998 291 1999 291 2000 291 2001 290 2002 290 2003 290 2004 289 2005 289 2006 289 2007 288 2008 288 2009 288 2010 288 2011 288 2012 288 2013 287 2014 287 2015 287 2016 286 2017 286 2018 286 2019 285 2020 285 2021 285 2022 285 2023 285 2024 285 2025 284 2026 284 2027 284 2028 100 2029 100 2030 100 2031 100 2032 100 2033 100 2034 30 2035 30 2036 30 2037 30 2038 30 2039 30 2040 30 2041 30 2042 30 2043 30 2044 30 2045 30 2046 30 2047 30 2048 30 2049 30 2050 30 2051 30 2052 30 2053 30 2054 30 2055 30 2056 30 2057 30 2058 30 2059 30 2060 30 2061 30 2062 30 2063 30 2064 30 2065 30 2066 30 2067 30 2068 30 2069 30 2070 296 2071 296 2072 296 2073 30 2074 30 2075 30 2076 30 2077 30 2078 30 2079 30 2080 30 2081 30 2082 30 2083 30 2084 30 2085 30 2086 30 2087 30 2088 30 2089 30 2090 30 2091 30 2092 30 2093 30 2094 30 2095 30 2096 30 2097 30 2098 30 2099 30 2100 30 2101 30 2102 30 2103 30 2104 30 2105 30 2106 30 2107 30 2108 30 2109 30 2110 30 2111 30 2112 30 2113 30 2114 30 2115 30 2116 30 2117 30 2118 30 2119 30 2120 30 2121 30 2122 30 2123 30 2124 100 2125 100 2126 100 2127 100 2128 100 2129 100 2130 7 2131 7 2132 7 2133 7 2134 7 2135 7 2136 7 2137 7 2138 7 2139 7 2140 7 2141 7 2142 7 2143 7 2144 7 2145 7 2146 7 2147 7 2148 7 2149 7 2150 7 2151 7 2152 7 2153 7 2154 7 2155 7 2156 7 2157 7 2158 7 2159 7 2160 7 2161 7 2162 7 2163 7 2164 7 2165 7 2166 297 2167 297 2168 297 2169 7 2170 7 2171 7 2172 7 2173 7 2174 7 2175 7 2176 7 2177 7 2178 7 2179 7 2180 7 2181 7 2182 7 2183 7 2184 298 2185 298 2186 298 2187 7 2188 7 2189 7 2190 7 2191 7 2192 7 2193 7 2194 7 2195 7 2196 7 2197 7 2198 7 2199 7 2200 7 2201 7 2202 7 2203 7 2204 7 2205 7 2206 7 2207 7 2208 7 2209 7 2210 7 2211 7 2212 7 2213 7 2214 0 2215 0 2216 0 2217 0 2218 0 2219 0 2220 0 2221 0 2222 0 2223 0 2224 0 2225 0 2226 0 2227 0 2228 0 2229 0 2230 0 2231 0 2232 0 2233 0 2234 0 2235 0 2236 0 2237 0 2238 0 2239 0 2240 0 2241 0 2242 0 2243 0 2244 0 2245 0 2246 0 2247 0 2248 0 2249 0 2250 0 2251 0 2252 0 2253 0 2254 0 2255 0 2256 0 2257 0 2258 0 2259 0 2260 0 2261 0 2262 0 2263 0 2264 0 2265 0 2266 0 2267 0 2268 0 2269 0 2270 0 2271 0 2272 0 2273 0 2274 0 2275 0 2276 0 2277 0 2278 0 2279 0 2280 0 2281 0 2282 0 2283 0 2284 0 2285 0 2286 0 2287 0 2288 0 2289 0 2290 0 2291 0 2292 0 2293 0 2294 0 2295 0 2296 0 2297 0 2298 100 2299 100 2300 100 2301 100 2302 100 2303 100 2304 299 2305 299 2306 299 2307 300 2308 300 2309 300 2310 301 2311 301 2312 301 2313 302 2314 302 2315 302 2316 303 2317 303 2318 303 2319 304 2320 304 2321 304 2322 305 2323 305 2324 305 2325 306 2326 306 2327 306 2328 307 2329 307 2330 307 2331 308 2332 308 2333 308 2334 309 2335 309 2336 309 2337 310 2338 310 2339 310 2340 311 2341 311 2342 311 2343 312 2344 312 2345 312 2346 313 2347 313 2348 313 2349 314 2350 314 2351 314 2352 315 2353 315 2354 315 2355 316 2356 316 2357 316 2358 317 2359 317 2360 317 2361 318 2362 318 2363 318 2364 319 2365 319 2366 319 2367 320 2368 320 2369 320 2370 321 2371 321 2372 321 2373 322 2374 322 2375 322 2376 323 2377 323 2378 323 2379 324 2380 324 2381 324 2382 325 2383 325 2384 325 2385 326 2386 326 2387 326 2388 100 2389 100 2390 100 2391 100 2392 100 2393 100 2394 100 2395 100 2396 100 2397 100 2398 100 2399 100 2400 327 2401 327 2402 327 2403 328 2404 328 2405 328 2406 329 2407 329 2408 329 2409 329 2410 329 2411 329 2412 330 2413 330 2414 330 2415 330 2416 330 2417 330 2418 331 2419 331 2420 331 2421 331 2422 331 2423 331 2424 332 2425 332 2426 332 2427 333 2428 333 2429 333 2430 334 2431 334 2432 334 2433 335 2434 335 2435 335 2436 336 2437 336 2438 336 2439 337 2440 337 2441 337 2442 338 2443 338 2444 338 2445 339 2446 339 2447 339 2448 340 2449 340 2450 340 2451 341 2452 341 2453 341 2454 342 2455 342 2456 342 2457 343 2458 343 2459 343 2460 344 2461 344 2462 344 2463 345 2464 345 2465 345 2466 346 2467 346 2468 346 2469 347 2470 347 2471 347 2472 348 2473 348 2474 348 2475 349 2476 349 2477 349 2478 350 2479 350 2480 350 2481 351 2482 351 2483 351 2484 352 2485 352 2486 352 2487 352 2488 352 2489 352 2490 353 2491 353 2492 353 2493 353 2494 353 2495 353 2496 354 2497 354 2498 354 2499 355 2500 355 2501 355 2502 356 2503 356 2504 356 2505 357 2506 357 2507 357 2508 358 2509 358 2510 358 2511 359 2512 359 2513 359 2514 360 2515 360 2516 360 2517 361 2518 361 2519 361 2520 362 2521 362 2522 362 2523 363 2524 363 2525 363 2526 364 2527 364 2528 364 2529 365 2530 365 2531 365 2532 366 2533 366 2534 366 2535 367 2536 367 2537 367 2538 368 2539 368 2540 368 2541 369 2542 369 2543 369 2544 370 2545 370 2546 370 2547 371 2548 371 2549 371 2550 372 2551 372 2552 372 2553 373 2554 373 2555 373 2556 330 2557 330 2558 330 2559 330 2560 330 2561 330 2562 331 2563 331 2564 331 2565 331 2566 331 2567 331 2568 332 2569 332 2570 332 2571 333 2572 333 2573 333 2574 334 2575 334 2576 334 2577 335 2578 335 2579 335 2580 336 2581 336 2582 336 2583 337 2584 337 2585 337 2586 338 2587 338 2588 338 2589 339 2590 339 2591 339 2592 340 2593 340 2594 340 2595 341 2596 341 2597 341 2598 342 2599 342 2600 342 2601 343 2602 343 2603 343 2604 344 2605 344 2606 344 2607 345 2608 345 2609 345 2610 346 2611 346 2612 346 2613 347 2614 347 2615 347 2616 348 2617 348 2618 348 2619 349 2620 349 2621 349 2622 350 2623 350 2624 350 2625 351 2626 351 2627 351 2628 352 2629 352 2630 352 2631 352 2632 352 2633 352 2634 353 2635 353 2636 353 2637 353 2638 353 2639 353 2640 354 2641 354 2642 354 2643 355 2644 355 2645 355 2646 356 2647 356 2648 356 2649 357 2650 357 2651 357 2652 358 2653 358 2654 358 2655 359 2656 359 2657 359 2658 360 2659 360 2660 360 2661 361 2662 361 2663 361 2664 362 2665 362 2666 362 2667 363 2668 363 2669 363 2670 364 2671 364 2672 364 2673 365 2674 365 2675 365 2676 366 2677 366 2678 366 2679 367 2680 367 2681 367 2682 368 2683 368 2684 368 2685 369 2686 369 2687 369 2688 370 2689 370 2690 370 2691 371 2692 371 2693 371 2694 372 2695 372 2696 372 2697 373 2698 373 2699 373</p>
        </triangles>
      </mesh>
    </geometry>
  </library_geometries>
  <library_visual_scenes>
    <visual_scene id="Scene" name="Scene">
      <node id="_STL_BINARY_" name="&lt;STL_BINARY&gt;" type="NODE">
        <matrix sid="transform">0.001 0 0 0 0 7.54979e-11 -0.001 0 0 0.001 7.54979e-11 0 0 0 0 1</matrix>
        <instance_geometry url="#meshId0_name-mesh" name="&lt;STL_BINARY&gt;">
          <bind_material>
            <technique_common>
              <instance_material symbol="DefaultMaterial-material" target="#DefaultMaterial-material"/>
            </technique_common>
          </bind_material>
        </instance_geometry>
      </node>
    </visual_scene>
  </library_visual_scenes>
  <scene>
    <instance_visual_scene url="#Scene"/>
  </scene>
</COLLADA>